G04 EAGLE Gerber RS-274X export*
G75*
%MOMM*%
%FSLAX34Y34*%
%LPD*%
%INTop Copper*%
%IPPOS*%
%AMOC8*
5,1,8,0,0,1.08239X$1,22.5*%
G01*
%ADD10C,0.152400*%
%ADD11C,1.000000*%
%ADD12R,0.950000X0.850000*%
%ADD13R,1.150000X0.850000*%
%ADD14R,1.150000X0.970000*%
%ADD15R,0.950000X0.970000*%
%ADD16R,1.803000X1.600000*%
%ADD17R,1.800000X1.600000*%
%ADD18R,1.200000X1.200000*%
%ADD19R,1.500000X1.600000*%
%ADD20R,1.400000X1.000000*%
%ADD21R,1.500000X1.300000*%
%ADD22R,1.346200X0.381000*%
%ADD23R,1.900000X1.900000*%
%ADD24R,1.600000X1.803000*%
%ADD25C,0.254000*%


D10*
X183078Y13462D02*
X183078Y29718D01*
X187593Y29718D02*
X178562Y29718D01*
X193883Y29718D02*
X193883Y13462D01*
X193883Y29718D02*
X198399Y29718D01*
X198532Y29716D01*
X198664Y29710D01*
X198796Y29700D01*
X198928Y29687D01*
X199060Y29669D01*
X199190Y29648D01*
X199321Y29623D01*
X199450Y29594D01*
X199578Y29561D01*
X199706Y29525D01*
X199832Y29485D01*
X199957Y29441D01*
X200081Y29393D01*
X200203Y29342D01*
X200324Y29287D01*
X200443Y29229D01*
X200561Y29167D01*
X200676Y29102D01*
X200790Y29033D01*
X200901Y28962D01*
X201010Y28886D01*
X201117Y28808D01*
X201222Y28727D01*
X201324Y28642D01*
X201424Y28555D01*
X201521Y28465D01*
X201616Y28372D01*
X201707Y28276D01*
X201796Y28178D01*
X201882Y28077D01*
X201965Y27973D01*
X202045Y27867D01*
X202121Y27759D01*
X202195Y27649D01*
X202265Y27536D01*
X202332Y27422D01*
X202395Y27305D01*
X202455Y27187D01*
X202512Y27067D01*
X202565Y26945D01*
X202614Y26822D01*
X202660Y26698D01*
X202702Y26572D01*
X202740Y26445D01*
X202775Y26317D01*
X202806Y26188D01*
X202833Y26059D01*
X202856Y25928D01*
X202876Y25797D01*
X202891Y25665D01*
X202903Y25533D01*
X202911Y25401D01*
X202915Y25268D01*
X202915Y25136D01*
X202911Y25003D01*
X202903Y24871D01*
X202891Y24739D01*
X202876Y24607D01*
X202856Y24476D01*
X202833Y24345D01*
X202806Y24216D01*
X202775Y24087D01*
X202740Y23959D01*
X202702Y23832D01*
X202660Y23706D01*
X202614Y23582D01*
X202565Y23459D01*
X202512Y23337D01*
X202455Y23217D01*
X202395Y23099D01*
X202332Y22982D01*
X202265Y22868D01*
X202195Y22755D01*
X202121Y22645D01*
X202045Y22537D01*
X201965Y22431D01*
X201882Y22327D01*
X201796Y22226D01*
X201707Y22128D01*
X201616Y22032D01*
X201521Y21939D01*
X201424Y21849D01*
X201324Y21762D01*
X201222Y21677D01*
X201117Y21596D01*
X201010Y21518D01*
X200901Y21442D01*
X200790Y21371D01*
X200676Y21302D01*
X200561Y21237D01*
X200443Y21175D01*
X200324Y21117D01*
X200203Y21062D01*
X200081Y21011D01*
X199957Y20963D01*
X199832Y20919D01*
X199706Y20879D01*
X199578Y20843D01*
X199450Y20810D01*
X199321Y20781D01*
X199190Y20756D01*
X199060Y20735D01*
X198928Y20717D01*
X198796Y20704D01*
X198664Y20694D01*
X198532Y20688D01*
X198399Y20686D01*
X198399Y20687D02*
X193883Y20687D01*
X208782Y17074D02*
X212395Y29718D01*
X208782Y17074D02*
X217814Y17074D01*
X215104Y13462D02*
X215104Y20687D01*
X325882Y81478D02*
X342138Y81478D01*
X325882Y76962D02*
X325882Y85993D01*
X325882Y92283D02*
X342138Y92283D01*
X325882Y92283D02*
X325882Y96799D01*
X325884Y96932D01*
X325890Y97064D01*
X325900Y97196D01*
X325913Y97328D01*
X325931Y97460D01*
X325952Y97590D01*
X325977Y97721D01*
X326006Y97850D01*
X326039Y97978D01*
X326075Y98106D01*
X326115Y98232D01*
X326159Y98357D01*
X326207Y98481D01*
X326258Y98603D01*
X326313Y98724D01*
X326371Y98843D01*
X326433Y98961D01*
X326498Y99076D01*
X326567Y99190D01*
X326638Y99301D01*
X326714Y99410D01*
X326792Y99517D01*
X326873Y99622D01*
X326958Y99724D01*
X327045Y99824D01*
X327135Y99921D01*
X327228Y100016D01*
X327324Y100107D01*
X327422Y100196D01*
X327523Y100282D01*
X327627Y100365D01*
X327733Y100445D01*
X327841Y100521D01*
X327951Y100595D01*
X328064Y100665D01*
X328178Y100732D01*
X328295Y100795D01*
X328413Y100855D01*
X328533Y100912D01*
X328655Y100965D01*
X328778Y101014D01*
X328902Y101060D01*
X329028Y101102D01*
X329155Y101140D01*
X329283Y101175D01*
X329412Y101206D01*
X329541Y101233D01*
X329672Y101256D01*
X329803Y101276D01*
X329935Y101291D01*
X330067Y101303D01*
X330199Y101311D01*
X330332Y101315D01*
X330464Y101315D01*
X330597Y101311D01*
X330729Y101303D01*
X330861Y101291D01*
X330993Y101276D01*
X331124Y101256D01*
X331255Y101233D01*
X331384Y101206D01*
X331513Y101175D01*
X331641Y101140D01*
X331768Y101102D01*
X331894Y101060D01*
X332018Y101014D01*
X332141Y100965D01*
X332263Y100912D01*
X332383Y100855D01*
X332501Y100795D01*
X332618Y100732D01*
X332732Y100665D01*
X332845Y100595D01*
X332955Y100521D01*
X333063Y100445D01*
X333169Y100365D01*
X333273Y100282D01*
X333374Y100196D01*
X333472Y100107D01*
X333568Y100016D01*
X333661Y99921D01*
X333751Y99824D01*
X333838Y99724D01*
X333923Y99622D01*
X334004Y99517D01*
X334082Y99410D01*
X334158Y99301D01*
X334229Y99190D01*
X334298Y99076D01*
X334363Y98961D01*
X334425Y98843D01*
X334483Y98724D01*
X334538Y98603D01*
X334589Y98481D01*
X334637Y98357D01*
X334681Y98232D01*
X334721Y98106D01*
X334757Y97978D01*
X334790Y97850D01*
X334819Y97721D01*
X334844Y97590D01*
X334865Y97460D01*
X334883Y97328D01*
X334896Y97196D01*
X334906Y97064D01*
X334912Y96932D01*
X334914Y96799D01*
X334913Y96799D02*
X334913Y92283D01*
X342138Y107182D02*
X342138Y111698D01*
X342136Y111831D01*
X342130Y111963D01*
X342120Y112095D01*
X342107Y112227D01*
X342089Y112359D01*
X342068Y112489D01*
X342043Y112620D01*
X342014Y112749D01*
X341981Y112877D01*
X341945Y113005D01*
X341905Y113131D01*
X341861Y113256D01*
X341813Y113380D01*
X341762Y113502D01*
X341707Y113623D01*
X341649Y113742D01*
X341587Y113860D01*
X341522Y113975D01*
X341453Y114089D01*
X341382Y114200D01*
X341306Y114309D01*
X341228Y114416D01*
X341147Y114521D01*
X341062Y114623D01*
X340975Y114723D01*
X340885Y114820D01*
X340792Y114915D01*
X340696Y115006D01*
X340598Y115095D01*
X340497Y115181D01*
X340393Y115264D01*
X340287Y115344D01*
X340179Y115420D01*
X340069Y115494D01*
X339956Y115564D01*
X339842Y115631D01*
X339725Y115694D01*
X339607Y115754D01*
X339487Y115811D01*
X339365Y115864D01*
X339242Y115913D01*
X339118Y115959D01*
X338992Y116001D01*
X338865Y116039D01*
X338737Y116074D01*
X338608Y116105D01*
X338479Y116132D01*
X338348Y116155D01*
X338217Y116175D01*
X338085Y116190D01*
X337953Y116202D01*
X337821Y116210D01*
X337688Y116214D01*
X337556Y116214D01*
X337423Y116210D01*
X337291Y116202D01*
X337159Y116190D01*
X337027Y116175D01*
X336896Y116155D01*
X336765Y116132D01*
X336636Y116105D01*
X336507Y116074D01*
X336379Y116039D01*
X336252Y116001D01*
X336126Y115959D01*
X336002Y115913D01*
X335879Y115864D01*
X335757Y115811D01*
X335637Y115754D01*
X335519Y115694D01*
X335402Y115631D01*
X335288Y115564D01*
X335175Y115494D01*
X335065Y115420D01*
X334957Y115344D01*
X334851Y115264D01*
X334747Y115181D01*
X334646Y115095D01*
X334548Y115006D01*
X334452Y114915D01*
X334359Y114820D01*
X334269Y114723D01*
X334182Y114623D01*
X334097Y114521D01*
X334016Y114416D01*
X333938Y114309D01*
X333862Y114200D01*
X333791Y114089D01*
X333722Y113975D01*
X333657Y113860D01*
X333595Y113742D01*
X333537Y113623D01*
X333482Y113502D01*
X333431Y113380D01*
X333383Y113256D01*
X333339Y113131D01*
X333299Y113005D01*
X333263Y112877D01*
X333230Y112749D01*
X333201Y112620D01*
X333176Y112489D01*
X333155Y112359D01*
X333137Y112227D01*
X333124Y112095D01*
X333114Y111963D01*
X333108Y111831D01*
X333106Y111698D01*
X325882Y112601D02*
X325882Y107182D01*
X325882Y112601D02*
X325884Y112720D01*
X325890Y112840D01*
X325900Y112959D01*
X325914Y113077D01*
X325931Y113196D01*
X325953Y113313D01*
X325978Y113430D01*
X326008Y113545D01*
X326041Y113660D01*
X326078Y113774D01*
X326118Y113886D01*
X326163Y113997D01*
X326211Y114106D01*
X326262Y114214D01*
X326317Y114320D01*
X326376Y114424D01*
X326438Y114526D01*
X326503Y114626D01*
X326572Y114724D01*
X326644Y114820D01*
X326719Y114913D01*
X326796Y115003D01*
X326877Y115091D01*
X326961Y115176D01*
X327048Y115258D01*
X327137Y115338D01*
X327229Y115414D01*
X327323Y115488D01*
X327420Y115558D01*
X327518Y115625D01*
X327619Y115689D01*
X327723Y115749D01*
X327828Y115806D01*
X327935Y115859D01*
X328043Y115909D01*
X328153Y115955D01*
X328265Y115997D01*
X328378Y116036D01*
X328492Y116071D01*
X328607Y116102D01*
X328724Y116130D01*
X328841Y116153D01*
X328958Y116173D01*
X329077Y116189D01*
X329196Y116201D01*
X329315Y116209D01*
X329434Y116213D01*
X329554Y116213D01*
X329673Y116209D01*
X329792Y116201D01*
X329911Y116189D01*
X330030Y116173D01*
X330147Y116153D01*
X330264Y116130D01*
X330381Y116102D01*
X330496Y116071D01*
X330610Y116036D01*
X330723Y115997D01*
X330835Y115955D01*
X330945Y115909D01*
X331053Y115859D01*
X331160Y115806D01*
X331265Y115749D01*
X331369Y115689D01*
X331470Y115625D01*
X331568Y115558D01*
X331665Y115488D01*
X331759Y115414D01*
X331851Y115338D01*
X331940Y115258D01*
X332027Y115176D01*
X332111Y115091D01*
X332192Y115003D01*
X332269Y114913D01*
X332344Y114820D01*
X332416Y114724D01*
X332485Y114626D01*
X332550Y114526D01*
X332612Y114424D01*
X332671Y114320D01*
X332726Y114214D01*
X332777Y114106D01*
X332825Y113997D01*
X332870Y113886D01*
X332910Y113774D01*
X332947Y113660D01*
X332980Y113545D01*
X333010Y113430D01*
X333035Y113313D01*
X333057Y113196D01*
X333074Y113077D01*
X333088Y112959D01*
X333098Y112840D01*
X333104Y112720D01*
X333106Y112601D01*
X333107Y112601D02*
X333107Y108989D01*
X437388Y33387D02*
X437388Y29774D01*
X437386Y29656D01*
X437380Y29538D01*
X437371Y29420D01*
X437357Y29303D01*
X437340Y29186D01*
X437319Y29069D01*
X437294Y28954D01*
X437265Y28839D01*
X437232Y28725D01*
X437196Y28613D01*
X437156Y28502D01*
X437113Y28392D01*
X437066Y28283D01*
X437016Y28176D01*
X436961Y28071D01*
X436904Y27968D01*
X436843Y27867D01*
X436779Y27767D01*
X436712Y27670D01*
X436642Y27575D01*
X436568Y27483D01*
X436492Y27392D01*
X436412Y27305D01*
X436330Y27220D01*
X436245Y27138D01*
X436158Y27058D01*
X436067Y26982D01*
X435975Y26908D01*
X435880Y26838D01*
X435783Y26771D01*
X435683Y26707D01*
X435582Y26646D01*
X435479Y26589D01*
X435374Y26534D01*
X435267Y26484D01*
X435158Y26437D01*
X435048Y26394D01*
X434937Y26354D01*
X434825Y26318D01*
X434711Y26285D01*
X434596Y26256D01*
X434481Y26231D01*
X434364Y26210D01*
X434247Y26193D01*
X434130Y26179D01*
X434012Y26170D01*
X433894Y26164D01*
X433776Y26162D01*
X424744Y26162D01*
X424626Y26164D01*
X424508Y26170D01*
X424390Y26179D01*
X424272Y26193D01*
X424155Y26210D01*
X424039Y26231D01*
X423924Y26256D01*
X423809Y26285D01*
X423695Y26318D01*
X423583Y26354D01*
X423471Y26394D01*
X423361Y26437D01*
X423253Y26484D01*
X423146Y26535D01*
X423041Y26589D01*
X422938Y26646D01*
X422836Y26707D01*
X422737Y26771D01*
X422640Y26838D01*
X422545Y26909D01*
X422452Y26982D01*
X422362Y27059D01*
X422274Y27138D01*
X422189Y27220D01*
X422107Y27305D01*
X422028Y27393D01*
X421951Y27483D01*
X421878Y27576D01*
X421807Y27670D01*
X421740Y27768D01*
X421676Y27867D01*
X421615Y27968D01*
X421558Y28072D01*
X421504Y28177D01*
X421453Y28284D01*
X421406Y28392D01*
X421363Y28502D01*
X421323Y28614D01*
X421287Y28726D01*
X421254Y28840D01*
X421225Y28955D01*
X421200Y29070D01*
X421179Y29186D01*
X421162Y29303D01*
X421148Y29421D01*
X421139Y29539D01*
X421133Y29657D01*
X421131Y29775D01*
X421132Y29774D02*
X421132Y33387D01*
X424744Y39228D02*
X421132Y43743D01*
X437388Y43743D01*
X437388Y39228D02*
X437388Y48259D01*
X381762Y-65532D02*
X381762Y-77272D01*
X381764Y-77405D01*
X381770Y-77537D01*
X381780Y-77669D01*
X381793Y-77801D01*
X381811Y-77933D01*
X381832Y-78063D01*
X381857Y-78194D01*
X381886Y-78323D01*
X381919Y-78451D01*
X381955Y-78579D01*
X381995Y-78705D01*
X382039Y-78830D01*
X382087Y-78954D01*
X382138Y-79076D01*
X382193Y-79197D01*
X382251Y-79316D01*
X382313Y-79434D01*
X382378Y-79549D01*
X382447Y-79663D01*
X382518Y-79774D01*
X382594Y-79883D01*
X382672Y-79990D01*
X382753Y-80095D01*
X382838Y-80197D01*
X382925Y-80297D01*
X383015Y-80394D01*
X383108Y-80489D01*
X383204Y-80580D01*
X383302Y-80669D01*
X383403Y-80755D01*
X383507Y-80838D01*
X383613Y-80918D01*
X383721Y-80994D01*
X383831Y-81068D01*
X383944Y-81138D01*
X384058Y-81205D01*
X384175Y-81268D01*
X384293Y-81328D01*
X384413Y-81385D01*
X384535Y-81438D01*
X384658Y-81487D01*
X384782Y-81533D01*
X384908Y-81575D01*
X385035Y-81613D01*
X385163Y-81648D01*
X385292Y-81679D01*
X385421Y-81706D01*
X385552Y-81729D01*
X385683Y-81749D01*
X385815Y-81764D01*
X385947Y-81776D01*
X386079Y-81784D01*
X386212Y-81788D01*
X386344Y-81788D01*
X386477Y-81784D01*
X386609Y-81776D01*
X386741Y-81764D01*
X386873Y-81749D01*
X387004Y-81729D01*
X387135Y-81706D01*
X387264Y-81679D01*
X387393Y-81648D01*
X387521Y-81613D01*
X387648Y-81575D01*
X387774Y-81533D01*
X387898Y-81487D01*
X388021Y-81438D01*
X388143Y-81385D01*
X388263Y-81328D01*
X388381Y-81268D01*
X388498Y-81205D01*
X388612Y-81138D01*
X388725Y-81068D01*
X388835Y-80994D01*
X388943Y-80918D01*
X389049Y-80838D01*
X389153Y-80755D01*
X389254Y-80669D01*
X389352Y-80580D01*
X389448Y-80489D01*
X389541Y-80394D01*
X389631Y-80297D01*
X389718Y-80197D01*
X389803Y-80095D01*
X389884Y-79990D01*
X389962Y-79883D01*
X390038Y-79774D01*
X390109Y-79663D01*
X390178Y-79549D01*
X390243Y-79434D01*
X390305Y-79316D01*
X390363Y-79197D01*
X390418Y-79076D01*
X390469Y-78954D01*
X390517Y-78830D01*
X390561Y-78705D01*
X390601Y-78579D01*
X390637Y-78451D01*
X390670Y-78323D01*
X390699Y-78194D01*
X390724Y-78063D01*
X390745Y-77933D01*
X390763Y-77801D01*
X390776Y-77669D01*
X390786Y-77537D01*
X390792Y-77405D01*
X390794Y-77272D01*
X390793Y-77272D02*
X390793Y-65532D01*
X397914Y-69144D02*
X402430Y-65532D01*
X402430Y-81788D01*
X406945Y-81788D02*
X397914Y-81788D01*
X457962Y-75438D02*
X457962Y-59182D01*
X462478Y-59182D01*
X462611Y-59184D01*
X462743Y-59190D01*
X462875Y-59200D01*
X463007Y-59213D01*
X463139Y-59231D01*
X463269Y-59252D01*
X463400Y-59277D01*
X463529Y-59306D01*
X463657Y-59339D01*
X463785Y-59375D01*
X463911Y-59415D01*
X464036Y-59459D01*
X464160Y-59507D01*
X464282Y-59558D01*
X464403Y-59613D01*
X464522Y-59671D01*
X464640Y-59733D01*
X464755Y-59798D01*
X464869Y-59867D01*
X464980Y-59938D01*
X465089Y-60014D01*
X465196Y-60092D01*
X465301Y-60173D01*
X465403Y-60258D01*
X465503Y-60345D01*
X465600Y-60435D01*
X465695Y-60528D01*
X465786Y-60624D01*
X465875Y-60722D01*
X465961Y-60823D01*
X466044Y-60927D01*
X466124Y-61033D01*
X466200Y-61141D01*
X466274Y-61251D01*
X466344Y-61364D01*
X466411Y-61478D01*
X466474Y-61595D01*
X466534Y-61713D01*
X466591Y-61833D01*
X466644Y-61955D01*
X466693Y-62078D01*
X466739Y-62202D01*
X466781Y-62328D01*
X466819Y-62455D01*
X466854Y-62583D01*
X466885Y-62712D01*
X466912Y-62841D01*
X466935Y-62972D01*
X466955Y-63103D01*
X466970Y-63235D01*
X466982Y-63367D01*
X466990Y-63499D01*
X466994Y-63632D01*
X466994Y-63764D01*
X466990Y-63897D01*
X466982Y-64029D01*
X466970Y-64161D01*
X466955Y-64293D01*
X466935Y-64424D01*
X466912Y-64555D01*
X466885Y-64684D01*
X466854Y-64813D01*
X466819Y-64941D01*
X466781Y-65068D01*
X466739Y-65194D01*
X466693Y-65318D01*
X466644Y-65441D01*
X466591Y-65563D01*
X466534Y-65683D01*
X466474Y-65801D01*
X466411Y-65918D01*
X466344Y-66032D01*
X466274Y-66145D01*
X466200Y-66255D01*
X466124Y-66363D01*
X466044Y-66469D01*
X465961Y-66573D01*
X465875Y-66674D01*
X465786Y-66772D01*
X465695Y-66868D01*
X465600Y-66961D01*
X465503Y-67051D01*
X465403Y-67138D01*
X465301Y-67223D01*
X465196Y-67304D01*
X465089Y-67382D01*
X464980Y-67458D01*
X464869Y-67529D01*
X464755Y-67598D01*
X464640Y-67663D01*
X464522Y-67725D01*
X464403Y-67783D01*
X464282Y-67838D01*
X464160Y-67889D01*
X464036Y-67937D01*
X463911Y-67981D01*
X463785Y-68021D01*
X463657Y-68057D01*
X463529Y-68090D01*
X463400Y-68119D01*
X463269Y-68144D01*
X463139Y-68165D01*
X463007Y-68183D01*
X462875Y-68196D01*
X462743Y-68206D01*
X462611Y-68212D01*
X462478Y-68214D01*
X462478Y-68213D02*
X457962Y-68213D01*
X463381Y-68213D02*
X466993Y-75438D01*
X473502Y-62794D02*
X478017Y-59182D01*
X478017Y-75438D01*
X473502Y-75438D02*
X482533Y-75438D01*
X621228Y-97282D02*
X621228Y-113538D01*
X616712Y-97282D02*
X625743Y-97282D01*
X632033Y-97282D02*
X632033Y-113538D01*
X632033Y-97282D02*
X636549Y-97282D01*
X636682Y-97284D01*
X636814Y-97290D01*
X636946Y-97300D01*
X637078Y-97313D01*
X637210Y-97331D01*
X637340Y-97352D01*
X637471Y-97377D01*
X637600Y-97406D01*
X637728Y-97439D01*
X637856Y-97475D01*
X637982Y-97515D01*
X638107Y-97559D01*
X638231Y-97607D01*
X638353Y-97658D01*
X638474Y-97713D01*
X638593Y-97771D01*
X638711Y-97833D01*
X638826Y-97898D01*
X638940Y-97967D01*
X639051Y-98038D01*
X639160Y-98114D01*
X639267Y-98192D01*
X639372Y-98273D01*
X639474Y-98358D01*
X639574Y-98445D01*
X639671Y-98535D01*
X639766Y-98628D01*
X639857Y-98724D01*
X639946Y-98822D01*
X640032Y-98923D01*
X640115Y-99027D01*
X640195Y-99133D01*
X640271Y-99241D01*
X640345Y-99351D01*
X640415Y-99464D01*
X640482Y-99578D01*
X640545Y-99695D01*
X640605Y-99813D01*
X640662Y-99933D01*
X640715Y-100055D01*
X640764Y-100178D01*
X640810Y-100302D01*
X640852Y-100428D01*
X640890Y-100555D01*
X640925Y-100683D01*
X640956Y-100812D01*
X640983Y-100941D01*
X641006Y-101072D01*
X641026Y-101203D01*
X641041Y-101335D01*
X641053Y-101467D01*
X641061Y-101599D01*
X641065Y-101732D01*
X641065Y-101864D01*
X641061Y-101997D01*
X641053Y-102129D01*
X641041Y-102261D01*
X641026Y-102393D01*
X641006Y-102524D01*
X640983Y-102655D01*
X640956Y-102784D01*
X640925Y-102913D01*
X640890Y-103041D01*
X640852Y-103168D01*
X640810Y-103294D01*
X640764Y-103418D01*
X640715Y-103541D01*
X640662Y-103663D01*
X640605Y-103783D01*
X640545Y-103901D01*
X640482Y-104018D01*
X640415Y-104132D01*
X640345Y-104245D01*
X640271Y-104355D01*
X640195Y-104463D01*
X640115Y-104569D01*
X640032Y-104673D01*
X639946Y-104774D01*
X639857Y-104872D01*
X639766Y-104968D01*
X639671Y-105061D01*
X639574Y-105151D01*
X639474Y-105238D01*
X639372Y-105323D01*
X639267Y-105404D01*
X639160Y-105482D01*
X639051Y-105558D01*
X638940Y-105629D01*
X638826Y-105698D01*
X638711Y-105763D01*
X638593Y-105825D01*
X638474Y-105883D01*
X638353Y-105938D01*
X638231Y-105989D01*
X638107Y-106037D01*
X637982Y-106081D01*
X637856Y-106121D01*
X637728Y-106157D01*
X637600Y-106190D01*
X637471Y-106219D01*
X637340Y-106244D01*
X637210Y-106265D01*
X637078Y-106283D01*
X636946Y-106296D01*
X636814Y-106306D01*
X636682Y-106312D01*
X636549Y-106314D01*
X636549Y-106313D02*
X632033Y-106313D01*
X646932Y-100894D02*
X651448Y-97282D01*
X651448Y-113538D01*
X646932Y-113538D02*
X655964Y-113538D01*
X725932Y-227838D02*
X742188Y-227838D01*
X725932Y-227838D02*
X725932Y-223322D01*
X725934Y-223189D01*
X725940Y-223057D01*
X725950Y-222925D01*
X725963Y-222793D01*
X725981Y-222661D01*
X726002Y-222531D01*
X726027Y-222400D01*
X726056Y-222271D01*
X726089Y-222143D01*
X726125Y-222015D01*
X726165Y-221889D01*
X726209Y-221764D01*
X726257Y-221640D01*
X726308Y-221518D01*
X726363Y-221397D01*
X726421Y-221278D01*
X726483Y-221160D01*
X726548Y-221045D01*
X726617Y-220931D01*
X726688Y-220820D01*
X726764Y-220711D01*
X726842Y-220604D01*
X726923Y-220499D01*
X727008Y-220397D01*
X727095Y-220297D01*
X727185Y-220200D01*
X727278Y-220105D01*
X727374Y-220014D01*
X727472Y-219925D01*
X727573Y-219839D01*
X727677Y-219756D01*
X727783Y-219676D01*
X727891Y-219600D01*
X728001Y-219526D01*
X728114Y-219456D01*
X728228Y-219389D01*
X728345Y-219326D01*
X728463Y-219266D01*
X728583Y-219209D01*
X728705Y-219156D01*
X728828Y-219107D01*
X728952Y-219061D01*
X729078Y-219019D01*
X729205Y-218981D01*
X729333Y-218946D01*
X729462Y-218915D01*
X729591Y-218888D01*
X729722Y-218865D01*
X729853Y-218845D01*
X729985Y-218830D01*
X730117Y-218818D01*
X730249Y-218810D01*
X730382Y-218806D01*
X730514Y-218806D01*
X730647Y-218810D01*
X730779Y-218818D01*
X730911Y-218830D01*
X731043Y-218845D01*
X731174Y-218865D01*
X731305Y-218888D01*
X731434Y-218915D01*
X731563Y-218946D01*
X731691Y-218981D01*
X731818Y-219019D01*
X731944Y-219061D01*
X732068Y-219107D01*
X732191Y-219156D01*
X732313Y-219209D01*
X732433Y-219266D01*
X732551Y-219326D01*
X732668Y-219389D01*
X732782Y-219456D01*
X732895Y-219526D01*
X733005Y-219600D01*
X733113Y-219676D01*
X733219Y-219756D01*
X733323Y-219839D01*
X733424Y-219925D01*
X733522Y-220014D01*
X733618Y-220105D01*
X733711Y-220200D01*
X733801Y-220297D01*
X733888Y-220397D01*
X733973Y-220499D01*
X734054Y-220604D01*
X734132Y-220711D01*
X734208Y-220820D01*
X734279Y-220931D01*
X734348Y-221045D01*
X734413Y-221160D01*
X734475Y-221278D01*
X734533Y-221397D01*
X734588Y-221518D01*
X734639Y-221640D01*
X734687Y-221764D01*
X734731Y-221889D01*
X734771Y-222015D01*
X734807Y-222143D01*
X734840Y-222271D01*
X734869Y-222400D01*
X734894Y-222531D01*
X734915Y-222661D01*
X734933Y-222793D01*
X734946Y-222925D01*
X734956Y-223057D01*
X734962Y-223189D01*
X734964Y-223322D01*
X734963Y-223322D02*
X734963Y-227838D01*
X734963Y-222419D02*
X742188Y-218807D01*
X742188Y-212298D02*
X742188Y-207783D01*
X742186Y-207650D01*
X742180Y-207518D01*
X742170Y-207386D01*
X742157Y-207254D01*
X742139Y-207122D01*
X742118Y-206992D01*
X742093Y-206861D01*
X742064Y-206732D01*
X742031Y-206604D01*
X741995Y-206476D01*
X741955Y-206350D01*
X741911Y-206225D01*
X741863Y-206101D01*
X741812Y-205979D01*
X741757Y-205858D01*
X741699Y-205739D01*
X741637Y-205621D01*
X741572Y-205506D01*
X741503Y-205392D01*
X741432Y-205281D01*
X741356Y-205172D01*
X741278Y-205065D01*
X741197Y-204960D01*
X741112Y-204858D01*
X741025Y-204758D01*
X740935Y-204661D01*
X740842Y-204566D01*
X740746Y-204475D01*
X740648Y-204386D01*
X740547Y-204300D01*
X740443Y-204217D01*
X740337Y-204137D01*
X740229Y-204061D01*
X740119Y-203987D01*
X740006Y-203917D01*
X739892Y-203850D01*
X739775Y-203787D01*
X739657Y-203727D01*
X739537Y-203670D01*
X739415Y-203617D01*
X739292Y-203568D01*
X739168Y-203522D01*
X739042Y-203480D01*
X738915Y-203442D01*
X738787Y-203407D01*
X738658Y-203376D01*
X738529Y-203349D01*
X738398Y-203326D01*
X738267Y-203306D01*
X738135Y-203291D01*
X738003Y-203279D01*
X737871Y-203271D01*
X737738Y-203267D01*
X737606Y-203267D01*
X737473Y-203271D01*
X737341Y-203279D01*
X737209Y-203291D01*
X737077Y-203306D01*
X736946Y-203326D01*
X736815Y-203349D01*
X736686Y-203376D01*
X736557Y-203407D01*
X736429Y-203442D01*
X736302Y-203480D01*
X736176Y-203522D01*
X736052Y-203568D01*
X735929Y-203617D01*
X735807Y-203670D01*
X735687Y-203727D01*
X735569Y-203787D01*
X735452Y-203850D01*
X735338Y-203917D01*
X735225Y-203987D01*
X735115Y-204061D01*
X735007Y-204137D01*
X734901Y-204217D01*
X734797Y-204300D01*
X734696Y-204386D01*
X734598Y-204475D01*
X734502Y-204566D01*
X734409Y-204661D01*
X734319Y-204758D01*
X734232Y-204858D01*
X734147Y-204960D01*
X734066Y-205065D01*
X733988Y-205172D01*
X733912Y-205281D01*
X733841Y-205392D01*
X733772Y-205506D01*
X733707Y-205621D01*
X733645Y-205739D01*
X733587Y-205858D01*
X733532Y-205979D01*
X733481Y-206101D01*
X733433Y-206225D01*
X733389Y-206350D01*
X733349Y-206476D01*
X733313Y-206604D01*
X733280Y-206732D01*
X733251Y-206861D01*
X733226Y-206992D01*
X733205Y-207122D01*
X733187Y-207254D01*
X733174Y-207386D01*
X733164Y-207518D01*
X733158Y-207650D01*
X733156Y-207783D01*
X725932Y-206880D02*
X725932Y-212298D01*
X725932Y-206880D02*
X725934Y-206761D01*
X725940Y-206641D01*
X725950Y-206522D01*
X725964Y-206404D01*
X725981Y-206285D01*
X726003Y-206168D01*
X726028Y-206051D01*
X726058Y-205936D01*
X726091Y-205821D01*
X726128Y-205707D01*
X726168Y-205595D01*
X726213Y-205484D01*
X726261Y-205375D01*
X726312Y-205267D01*
X726367Y-205161D01*
X726426Y-205057D01*
X726488Y-204955D01*
X726553Y-204855D01*
X726622Y-204757D01*
X726694Y-204661D01*
X726769Y-204568D01*
X726846Y-204478D01*
X726927Y-204390D01*
X727011Y-204305D01*
X727098Y-204223D01*
X727187Y-204143D01*
X727279Y-204067D01*
X727373Y-203993D01*
X727470Y-203923D01*
X727568Y-203856D01*
X727669Y-203792D01*
X727773Y-203732D01*
X727878Y-203675D01*
X727985Y-203622D01*
X728093Y-203572D01*
X728203Y-203526D01*
X728315Y-203484D01*
X728428Y-203445D01*
X728542Y-203410D01*
X728657Y-203379D01*
X728774Y-203351D01*
X728891Y-203328D01*
X729008Y-203308D01*
X729127Y-203292D01*
X729246Y-203280D01*
X729365Y-203272D01*
X729484Y-203268D01*
X729604Y-203268D01*
X729723Y-203272D01*
X729842Y-203280D01*
X729961Y-203292D01*
X730080Y-203308D01*
X730197Y-203328D01*
X730314Y-203351D01*
X730431Y-203379D01*
X730546Y-203410D01*
X730660Y-203445D01*
X730773Y-203484D01*
X730885Y-203526D01*
X730995Y-203572D01*
X731103Y-203622D01*
X731210Y-203675D01*
X731315Y-203732D01*
X731419Y-203792D01*
X731520Y-203856D01*
X731618Y-203923D01*
X731715Y-203993D01*
X731809Y-204067D01*
X731901Y-204143D01*
X731990Y-204223D01*
X732077Y-204305D01*
X732161Y-204390D01*
X732242Y-204478D01*
X732319Y-204568D01*
X732394Y-204661D01*
X732466Y-204757D01*
X732535Y-204855D01*
X732600Y-204955D01*
X732662Y-205057D01*
X732721Y-205161D01*
X732776Y-205267D01*
X732827Y-205375D01*
X732875Y-205484D01*
X732920Y-205595D01*
X732960Y-205707D01*
X732997Y-205821D01*
X733030Y-205936D01*
X733060Y-206051D01*
X733085Y-206168D01*
X733107Y-206285D01*
X733124Y-206404D01*
X733138Y-206522D01*
X733148Y-206641D01*
X733154Y-206761D01*
X733156Y-206880D01*
X733157Y-206880D02*
X733157Y-210492D01*
X725932Y-310388D02*
X742188Y-310388D01*
X742188Y-303163D01*
X742188Y-296841D02*
X742188Y-289616D01*
X742188Y-296841D02*
X725932Y-296841D01*
X725932Y-289616D01*
X733157Y-291422D02*
X733157Y-296841D01*
X725932Y-283324D02*
X742188Y-283324D01*
X725932Y-283324D02*
X725932Y-278808D01*
X725934Y-278677D01*
X725940Y-278545D01*
X725949Y-278414D01*
X725963Y-278284D01*
X725980Y-278153D01*
X726001Y-278024D01*
X726025Y-277895D01*
X726054Y-277767D01*
X726086Y-277639D01*
X726122Y-277513D01*
X726161Y-277388D01*
X726204Y-277263D01*
X726251Y-277141D01*
X726301Y-277019D01*
X726355Y-276899D01*
X726412Y-276781D01*
X726473Y-276665D01*
X726537Y-276550D01*
X726604Y-276437D01*
X726675Y-276326D01*
X726749Y-276218D01*
X726826Y-276111D01*
X726906Y-276007D01*
X726989Y-275905D01*
X727074Y-275806D01*
X727163Y-275709D01*
X727255Y-275615D01*
X727349Y-275523D01*
X727446Y-275434D01*
X727545Y-275349D01*
X727647Y-275266D01*
X727751Y-275186D01*
X727858Y-275109D01*
X727966Y-275035D01*
X728077Y-274964D01*
X728190Y-274897D01*
X728305Y-274833D01*
X728421Y-274772D01*
X728539Y-274715D01*
X728659Y-274661D01*
X728781Y-274611D01*
X728903Y-274564D01*
X729028Y-274521D01*
X729153Y-274482D01*
X729279Y-274446D01*
X729407Y-274414D01*
X729535Y-274385D01*
X729664Y-274361D01*
X729793Y-274340D01*
X729924Y-274323D01*
X730054Y-274309D01*
X730185Y-274300D01*
X730317Y-274294D01*
X730448Y-274292D01*
X730448Y-274293D02*
X737672Y-274293D01*
X737672Y-274292D02*
X737803Y-274294D01*
X737935Y-274300D01*
X738066Y-274309D01*
X738196Y-274323D01*
X738327Y-274340D01*
X738456Y-274361D01*
X738585Y-274385D01*
X738713Y-274414D01*
X738841Y-274446D01*
X738967Y-274482D01*
X739092Y-274521D01*
X739217Y-274564D01*
X739339Y-274611D01*
X739461Y-274661D01*
X739581Y-274715D01*
X739699Y-274772D01*
X739815Y-274833D01*
X739930Y-274897D01*
X740043Y-274964D01*
X740154Y-275035D01*
X740262Y-275109D01*
X740369Y-275186D01*
X740473Y-275266D01*
X740575Y-275349D01*
X740674Y-275434D01*
X740771Y-275523D01*
X740865Y-275615D01*
X740957Y-275709D01*
X741046Y-275806D01*
X741131Y-275905D01*
X741214Y-276007D01*
X741294Y-276111D01*
X741371Y-276218D01*
X741445Y-276326D01*
X741516Y-276437D01*
X741583Y-276550D01*
X741647Y-276665D01*
X741708Y-276781D01*
X741765Y-276899D01*
X741819Y-277019D01*
X741869Y-277141D01*
X741916Y-277263D01*
X741959Y-277388D01*
X741998Y-277513D01*
X742034Y-277639D01*
X742066Y-277767D01*
X742095Y-277895D01*
X742119Y-278024D01*
X742140Y-278154D01*
X742157Y-278284D01*
X742171Y-278414D01*
X742180Y-278545D01*
X742186Y-278677D01*
X742188Y-278808D01*
X742188Y-283324D01*
X729544Y-267171D02*
X725932Y-262656D01*
X742188Y-262656D01*
X742188Y-267171D02*
X742188Y-258140D01*
X680212Y-300482D02*
X680212Y-316738D01*
X680212Y-310416D02*
X689243Y-300482D01*
X683824Y-306804D02*
X689243Y-316738D01*
X526288Y-280472D02*
X510032Y-280472D01*
X510032Y-275957D02*
X510032Y-284988D01*
X513644Y-270399D02*
X510032Y-265883D01*
X526288Y-265883D01*
X526288Y-261368D02*
X526288Y-270399D01*
X519938Y-177038D02*
X503682Y-177038D01*
X503682Y-172522D01*
X503684Y-172389D01*
X503690Y-172257D01*
X503700Y-172125D01*
X503713Y-171993D01*
X503731Y-171861D01*
X503752Y-171731D01*
X503777Y-171600D01*
X503806Y-171471D01*
X503839Y-171343D01*
X503875Y-171215D01*
X503915Y-171089D01*
X503959Y-170964D01*
X504007Y-170840D01*
X504058Y-170718D01*
X504113Y-170597D01*
X504171Y-170478D01*
X504233Y-170360D01*
X504298Y-170245D01*
X504367Y-170131D01*
X504438Y-170020D01*
X504514Y-169911D01*
X504592Y-169804D01*
X504673Y-169699D01*
X504758Y-169597D01*
X504845Y-169497D01*
X504935Y-169400D01*
X505028Y-169305D01*
X505124Y-169214D01*
X505222Y-169125D01*
X505323Y-169039D01*
X505427Y-168956D01*
X505533Y-168876D01*
X505641Y-168800D01*
X505751Y-168726D01*
X505864Y-168656D01*
X505978Y-168589D01*
X506095Y-168526D01*
X506213Y-168466D01*
X506333Y-168409D01*
X506455Y-168356D01*
X506578Y-168307D01*
X506702Y-168261D01*
X506828Y-168219D01*
X506955Y-168181D01*
X507083Y-168146D01*
X507212Y-168115D01*
X507341Y-168088D01*
X507472Y-168065D01*
X507603Y-168045D01*
X507735Y-168030D01*
X507867Y-168018D01*
X507999Y-168010D01*
X508132Y-168006D01*
X508264Y-168006D01*
X508397Y-168010D01*
X508529Y-168018D01*
X508661Y-168030D01*
X508793Y-168045D01*
X508924Y-168065D01*
X509055Y-168088D01*
X509184Y-168115D01*
X509313Y-168146D01*
X509441Y-168181D01*
X509568Y-168219D01*
X509694Y-168261D01*
X509818Y-168307D01*
X509941Y-168356D01*
X510063Y-168409D01*
X510183Y-168466D01*
X510301Y-168526D01*
X510418Y-168589D01*
X510532Y-168656D01*
X510645Y-168726D01*
X510755Y-168800D01*
X510863Y-168876D01*
X510969Y-168956D01*
X511073Y-169039D01*
X511174Y-169125D01*
X511272Y-169214D01*
X511368Y-169305D01*
X511461Y-169400D01*
X511551Y-169497D01*
X511638Y-169597D01*
X511723Y-169699D01*
X511804Y-169804D01*
X511882Y-169911D01*
X511958Y-170020D01*
X512029Y-170131D01*
X512098Y-170245D01*
X512163Y-170360D01*
X512225Y-170478D01*
X512283Y-170597D01*
X512338Y-170718D01*
X512389Y-170840D01*
X512437Y-170964D01*
X512481Y-171089D01*
X512521Y-171215D01*
X512557Y-171343D01*
X512590Y-171471D01*
X512619Y-171600D01*
X512644Y-171731D01*
X512665Y-171861D01*
X512683Y-171993D01*
X512696Y-172125D01*
X512706Y-172257D01*
X512712Y-172389D01*
X512714Y-172522D01*
X512713Y-172522D02*
X512713Y-177038D01*
X512713Y-171619D02*
X519938Y-168007D01*
X507746Y-152467D02*
X507621Y-152469D01*
X507496Y-152475D01*
X507371Y-152484D01*
X507247Y-152498D01*
X507123Y-152515D01*
X506999Y-152536D01*
X506877Y-152561D01*
X506755Y-152590D01*
X506634Y-152622D01*
X506514Y-152658D01*
X506395Y-152698D01*
X506278Y-152741D01*
X506162Y-152788D01*
X506047Y-152839D01*
X505935Y-152893D01*
X505823Y-152951D01*
X505714Y-153011D01*
X505607Y-153076D01*
X505501Y-153143D01*
X505398Y-153214D01*
X505297Y-153288D01*
X505198Y-153365D01*
X505102Y-153445D01*
X505008Y-153528D01*
X504917Y-153613D01*
X504828Y-153702D01*
X504743Y-153793D01*
X504660Y-153887D01*
X504580Y-153983D01*
X504503Y-154082D01*
X504429Y-154183D01*
X504358Y-154286D01*
X504291Y-154392D01*
X504226Y-154499D01*
X504166Y-154608D01*
X504108Y-154720D01*
X504054Y-154832D01*
X504003Y-154947D01*
X503956Y-155063D01*
X503913Y-155180D01*
X503873Y-155299D01*
X503837Y-155419D01*
X503805Y-155540D01*
X503776Y-155662D01*
X503751Y-155784D01*
X503730Y-155908D01*
X503713Y-156032D01*
X503699Y-156156D01*
X503690Y-156281D01*
X503684Y-156406D01*
X503682Y-156531D01*
X503684Y-156674D01*
X503690Y-156816D01*
X503700Y-156959D01*
X503713Y-157101D01*
X503731Y-157242D01*
X503752Y-157384D01*
X503777Y-157524D01*
X503806Y-157664D01*
X503839Y-157803D01*
X503876Y-157941D01*
X503916Y-158078D01*
X503960Y-158213D01*
X504008Y-158348D01*
X504060Y-158481D01*
X504115Y-158613D01*
X504174Y-158743D01*
X504236Y-158871D01*
X504302Y-158998D01*
X504371Y-159123D01*
X504443Y-159246D01*
X504519Y-159367D01*
X504598Y-159485D01*
X504681Y-159602D01*
X504766Y-159716D01*
X504855Y-159828D01*
X504946Y-159937D01*
X505041Y-160044D01*
X505138Y-160149D01*
X505239Y-160250D01*
X505342Y-160349D01*
X505448Y-160445D01*
X505556Y-160538D01*
X505667Y-160628D01*
X505780Y-160715D01*
X505895Y-160799D01*
X506013Y-160879D01*
X506133Y-160957D01*
X506255Y-161031D01*
X506379Y-161101D01*
X506505Y-161169D01*
X506633Y-161233D01*
X506762Y-161293D01*
X506893Y-161350D01*
X507025Y-161403D01*
X507159Y-161452D01*
X507294Y-161498D01*
X510907Y-153822D02*
X510815Y-153728D01*
X510721Y-153638D01*
X510624Y-153550D01*
X510524Y-153465D01*
X510422Y-153383D01*
X510317Y-153305D01*
X510210Y-153229D01*
X510101Y-153157D01*
X509990Y-153088D01*
X509876Y-153022D01*
X509761Y-152960D01*
X509644Y-152901D01*
X509525Y-152846D01*
X509405Y-152795D01*
X509283Y-152747D01*
X509160Y-152702D01*
X509036Y-152662D01*
X508910Y-152625D01*
X508783Y-152592D01*
X508656Y-152563D01*
X508527Y-152537D01*
X508398Y-152516D01*
X508268Y-152498D01*
X508138Y-152485D01*
X508008Y-152475D01*
X507877Y-152469D01*
X507746Y-152467D01*
X510907Y-153822D02*
X519938Y-161498D01*
X519938Y-152467D01*
X621228Y-179832D02*
X621228Y-196088D01*
X616712Y-179832D02*
X625743Y-179832D01*
X632033Y-179832D02*
X632033Y-196088D01*
X632033Y-179832D02*
X636549Y-179832D01*
X636682Y-179834D01*
X636814Y-179840D01*
X636946Y-179850D01*
X637078Y-179863D01*
X637210Y-179881D01*
X637340Y-179902D01*
X637471Y-179927D01*
X637600Y-179956D01*
X637728Y-179989D01*
X637856Y-180025D01*
X637982Y-180065D01*
X638107Y-180109D01*
X638231Y-180157D01*
X638353Y-180208D01*
X638474Y-180263D01*
X638593Y-180321D01*
X638711Y-180383D01*
X638826Y-180448D01*
X638940Y-180517D01*
X639051Y-180588D01*
X639160Y-180664D01*
X639267Y-180742D01*
X639372Y-180823D01*
X639474Y-180908D01*
X639574Y-180995D01*
X639671Y-181085D01*
X639766Y-181178D01*
X639857Y-181274D01*
X639946Y-181372D01*
X640032Y-181473D01*
X640115Y-181577D01*
X640195Y-181683D01*
X640271Y-181791D01*
X640345Y-181901D01*
X640415Y-182014D01*
X640482Y-182128D01*
X640545Y-182245D01*
X640605Y-182363D01*
X640662Y-182483D01*
X640715Y-182605D01*
X640764Y-182728D01*
X640810Y-182852D01*
X640852Y-182978D01*
X640890Y-183105D01*
X640925Y-183233D01*
X640956Y-183362D01*
X640983Y-183491D01*
X641006Y-183622D01*
X641026Y-183753D01*
X641041Y-183885D01*
X641053Y-184017D01*
X641061Y-184149D01*
X641065Y-184282D01*
X641065Y-184414D01*
X641061Y-184547D01*
X641053Y-184679D01*
X641041Y-184811D01*
X641026Y-184943D01*
X641006Y-185074D01*
X640983Y-185205D01*
X640956Y-185334D01*
X640925Y-185463D01*
X640890Y-185591D01*
X640852Y-185718D01*
X640810Y-185844D01*
X640764Y-185968D01*
X640715Y-186091D01*
X640662Y-186213D01*
X640605Y-186333D01*
X640545Y-186451D01*
X640482Y-186568D01*
X640415Y-186682D01*
X640345Y-186795D01*
X640271Y-186905D01*
X640195Y-187013D01*
X640115Y-187119D01*
X640032Y-187223D01*
X639946Y-187324D01*
X639857Y-187422D01*
X639766Y-187518D01*
X639671Y-187611D01*
X639574Y-187701D01*
X639474Y-187788D01*
X639372Y-187873D01*
X639267Y-187954D01*
X639160Y-188032D01*
X639051Y-188108D01*
X638940Y-188179D01*
X638826Y-188248D01*
X638711Y-188313D01*
X638593Y-188375D01*
X638474Y-188433D01*
X638353Y-188488D01*
X638231Y-188539D01*
X638107Y-188587D01*
X637982Y-188631D01*
X637856Y-188671D01*
X637728Y-188707D01*
X637600Y-188740D01*
X637471Y-188769D01*
X637340Y-188794D01*
X637210Y-188815D01*
X637078Y-188833D01*
X636946Y-188846D01*
X636814Y-188856D01*
X636682Y-188862D01*
X636549Y-188864D01*
X636549Y-188863D02*
X632033Y-188863D01*
X651900Y-179832D02*
X652025Y-179834D01*
X652150Y-179840D01*
X652275Y-179849D01*
X652399Y-179863D01*
X652523Y-179880D01*
X652647Y-179901D01*
X652769Y-179926D01*
X652891Y-179955D01*
X653012Y-179987D01*
X653132Y-180023D01*
X653251Y-180063D01*
X653368Y-180106D01*
X653484Y-180153D01*
X653599Y-180204D01*
X653711Y-180258D01*
X653823Y-180316D01*
X653932Y-180376D01*
X654039Y-180441D01*
X654145Y-180508D01*
X654248Y-180579D01*
X654349Y-180653D01*
X654448Y-180730D01*
X654544Y-180810D01*
X654638Y-180893D01*
X654729Y-180978D01*
X654818Y-181067D01*
X654903Y-181158D01*
X654986Y-181252D01*
X655066Y-181348D01*
X655143Y-181447D01*
X655217Y-181548D01*
X655288Y-181651D01*
X655355Y-181757D01*
X655420Y-181864D01*
X655480Y-181973D01*
X655538Y-182085D01*
X655592Y-182197D01*
X655643Y-182312D01*
X655690Y-182428D01*
X655733Y-182545D01*
X655773Y-182664D01*
X655809Y-182784D01*
X655841Y-182905D01*
X655870Y-183027D01*
X655895Y-183149D01*
X655916Y-183273D01*
X655933Y-183397D01*
X655947Y-183521D01*
X655956Y-183646D01*
X655962Y-183771D01*
X655964Y-183896D01*
X651900Y-179832D02*
X651757Y-179834D01*
X651615Y-179840D01*
X651472Y-179850D01*
X651330Y-179863D01*
X651189Y-179881D01*
X651047Y-179902D01*
X650907Y-179927D01*
X650767Y-179956D01*
X650628Y-179989D01*
X650490Y-180026D01*
X650353Y-180066D01*
X650218Y-180110D01*
X650083Y-180158D01*
X649950Y-180210D01*
X649818Y-180265D01*
X649688Y-180324D01*
X649560Y-180386D01*
X649433Y-180452D01*
X649308Y-180521D01*
X649185Y-180593D01*
X649064Y-180669D01*
X648946Y-180748D01*
X648829Y-180831D01*
X648715Y-180916D01*
X648603Y-181005D01*
X648494Y-181096D01*
X648387Y-181191D01*
X648282Y-181288D01*
X648181Y-181389D01*
X648082Y-181492D01*
X647986Y-181597D01*
X647893Y-181706D01*
X647803Y-181817D01*
X647716Y-181930D01*
X647632Y-182045D01*
X647552Y-182163D01*
X647474Y-182283D01*
X647400Y-182405D01*
X647330Y-182529D01*
X647262Y-182655D01*
X647199Y-182783D01*
X647138Y-182912D01*
X647081Y-183043D01*
X647028Y-183175D01*
X646979Y-183309D01*
X646933Y-183444D01*
X654608Y-187057D02*
X654702Y-186965D01*
X654792Y-186871D01*
X654880Y-186774D01*
X654965Y-186674D01*
X655047Y-186572D01*
X655125Y-186467D01*
X655201Y-186360D01*
X655273Y-186251D01*
X655342Y-186140D01*
X655408Y-186026D01*
X655470Y-185911D01*
X655529Y-185794D01*
X655584Y-185675D01*
X655635Y-185555D01*
X655683Y-185433D01*
X655728Y-185310D01*
X655768Y-185186D01*
X655805Y-185060D01*
X655838Y-184933D01*
X655867Y-184806D01*
X655893Y-184677D01*
X655914Y-184548D01*
X655932Y-184418D01*
X655945Y-184288D01*
X655955Y-184158D01*
X655961Y-184027D01*
X655963Y-183896D01*
X654609Y-187057D02*
X646932Y-196088D01*
X655964Y-196088D01*
D11*
X130250Y-377750D03*
X892250Y130250D03*
D12*
X407300Y-44400D03*
D13*
X393800Y-44400D03*
D14*
X393800Y-32400D03*
D15*
X407300Y-32400D03*
D16*
X438150Y-17530D03*
X438150Y-45970D03*
D17*
X393700Y26700D03*
X393700Y-1300D03*
D18*
X547150Y-161450D03*
X547150Y-181450D03*
D19*
X579650Y-171450D03*
D20*
X554150Y-273050D03*
X576150Y-263550D03*
X576150Y-282550D03*
D18*
X685800Y-277200D03*
X685800Y-256200D03*
D21*
X685800Y-225400D03*
X685800Y-206400D03*
D22*
X137240Y-54310D03*
X137240Y-60810D03*
X137240Y-67310D03*
X137240Y-73810D03*
X137240Y-80310D03*
D23*
X110490Y-27810D03*
X110490Y-55310D03*
X110490Y-79310D03*
X110490Y-106810D03*
D16*
X336550Y26920D03*
X336550Y-1520D03*
D24*
X141220Y19050D03*
X112780Y19050D03*
X592070Y-107950D03*
X563630Y-107950D03*
X630170Y-228600D03*
X601730Y-228600D03*
D25*
X393800Y-32400D02*
X393700Y-32300D01*
X393700Y-1520D01*
X393700Y-1300D01*
X421920Y-1300D01*
X438150Y-17530D01*
X336550Y-54310D02*
X137240Y-54310D01*
X336550Y-54310D02*
X336550Y-1520D01*
X393700Y-1520D01*
X438150Y-17530D02*
X685800Y-17530D01*
X685800Y-206400D01*
X336550Y-1520D02*
X336550Y26920D01*
X407300Y-44400D02*
X438150Y-44400D01*
X438150Y-45970D01*
X768350Y69850D02*
X768350Y-330200D01*
X95250Y-330200D01*
X95250Y69850D01*
X768350Y69850D01*
X693378Y-246390D02*
X690880Y-246390D01*
X690880Y-235710D01*
X694878Y-235710D01*
X697110Y-233478D01*
X697110Y-217322D01*
X695688Y-215900D01*
X697110Y-214478D01*
X697110Y-198322D01*
X694878Y-196090D01*
X690880Y-196090D01*
X690880Y-15426D01*
X687904Y-12450D01*
X450975Y-12450D01*
X450975Y-7952D01*
X448743Y-5720D01*
X433524Y-5720D01*
X424024Y3780D01*
X406510Y3780D01*
X406510Y8278D01*
X404278Y10510D01*
X383122Y10510D01*
X380890Y8278D01*
X380890Y3560D01*
X349375Y3560D01*
X349375Y8058D01*
X347143Y10290D01*
X341630Y10290D01*
X341630Y15110D01*
X347143Y15110D01*
X349375Y17342D01*
X349375Y36498D01*
X347143Y38730D01*
X325957Y38730D01*
X323725Y36498D01*
X323725Y17342D01*
X325957Y15110D01*
X331470Y15110D01*
X331470Y10290D01*
X325957Y10290D01*
X323725Y8058D01*
X323725Y-11098D01*
X325957Y-13330D01*
X331470Y-13330D01*
X331470Y-49230D01*
X146184Y-49230D01*
X145549Y-48595D01*
X136010Y-48595D01*
X136010Y-45645D01*
X133655Y-43290D01*
X130325Y-43290D01*
X127970Y-45645D01*
X127970Y-48975D01*
X128260Y-49265D01*
X126699Y-50827D01*
X126699Y-77293D01*
X128931Y-79525D01*
X145549Y-79525D01*
X147781Y-77293D01*
X147781Y-59390D01*
X338654Y-59390D01*
X341630Y-56414D01*
X341630Y-13330D01*
X347143Y-13330D01*
X349375Y-11098D01*
X349375Y-6600D01*
X380890Y-6600D01*
X380890Y-10878D01*
X383122Y-13110D01*
X388620Y-13110D01*
X388620Y-23740D01*
X386472Y-23740D01*
X384240Y-25972D01*
X384240Y-38828D01*
X386472Y-41060D01*
X398740Y-41060D01*
X398740Y-50228D01*
X400972Y-52460D01*
X413628Y-52460D01*
X415860Y-50228D01*
X415860Y-49480D01*
X425325Y-49480D01*
X425325Y-55548D01*
X427557Y-57780D01*
X448743Y-57780D01*
X450975Y-55548D01*
X450975Y-37480D01*
X558550Y-37480D01*
X558550Y-95125D01*
X554052Y-95125D01*
X551820Y-97357D01*
X551820Y-102870D01*
X545046Y-102870D01*
X542070Y-105846D01*
X542070Y-151640D01*
X539572Y-151640D01*
X537340Y-153872D01*
X537340Y-169028D01*
X539572Y-171260D01*
X554728Y-171260D01*
X556960Y-169028D01*
X556960Y-153872D01*
X554728Y-151640D01*
X552230Y-151640D01*
X552230Y-118953D01*
X554052Y-120775D01*
X573208Y-120775D01*
X575440Y-118543D01*
X575440Y-113030D01*
X580260Y-113030D01*
X580260Y-118543D01*
X582492Y-120775D01*
X601648Y-120775D01*
X603880Y-118543D01*
X603880Y-97357D01*
X601648Y-95125D01*
X582492Y-95125D01*
X580260Y-97357D01*
X580260Y-102870D01*
X575440Y-102870D01*
X575440Y-97357D01*
X573208Y-95125D01*
X568710Y-95125D01*
X568710Y-30296D01*
X565734Y-27320D01*
X450763Y-27320D01*
X450975Y-27108D01*
X450975Y-22610D01*
X680720Y-22610D01*
X680720Y-196090D01*
X676722Y-196090D01*
X674490Y-198322D01*
X674490Y-214478D01*
X675912Y-215900D01*
X674490Y-217322D01*
X674490Y-233478D01*
X676722Y-235710D01*
X680720Y-235710D01*
X680720Y-246390D01*
X678222Y-246390D01*
X675990Y-248622D01*
X675990Y-263778D01*
X678222Y-266010D01*
X693378Y-266010D01*
X695610Y-263778D01*
X695610Y-248622D01*
X693378Y-246390D01*
X660535Y-185790D02*
X660535Y-181582D01*
X658221Y-177574D01*
X658221Y-177574D01*
X658221Y-177574D01*
X654214Y-175260D01*
X649816Y-175260D01*
X646011Y-176956D01*
X646011Y-176956D01*
X644040Y-179147D01*
X643201Y-177695D01*
X643201Y-177695D01*
X643201Y-177695D01*
X638984Y-175260D01*
X630139Y-175260D01*
X628888Y-176511D01*
X627637Y-175260D01*
X614818Y-175260D01*
X612140Y-177938D01*
X612140Y-181726D01*
X614818Y-184404D01*
X616656Y-184404D01*
X616656Y-197982D01*
X619334Y-200660D01*
X623121Y-200660D01*
X625800Y-197982D01*
X625800Y-184404D01*
X627461Y-184404D01*
X627461Y-197982D01*
X630139Y-200660D01*
X633927Y-200660D01*
X636605Y-197982D01*
X636605Y-193435D01*
X638984Y-193435D01*
X643201Y-191000D01*
X643201Y-191000D01*
X643201Y-191000D01*
X645127Y-187665D01*
X647325Y-188378D01*
X647609Y-188233D01*
X643569Y-192986D01*
X642360Y-194194D01*
X642360Y-194407D01*
X642222Y-194570D01*
X642360Y-196273D01*
X642360Y-197982D01*
X642511Y-198133D01*
X642528Y-198345D01*
X643830Y-199452D01*
X645039Y-200660D01*
X645252Y-200660D01*
X645414Y-200798D01*
X647117Y-200660D01*
X657857Y-200660D01*
X660535Y-197982D01*
X660535Y-194194D01*
X657857Y-191516D01*
X656819Y-191516D01*
X657936Y-190202D01*
X659090Y-189103D01*
X659090Y-189102D01*
X659314Y-188581D01*
X659319Y-188575D01*
X659319Y-188570D01*
X660491Y-185834D01*
X660535Y-185790D01*
X744082Y-232410D02*
X746760Y-229732D01*
X746760Y-225944D01*
X744082Y-223266D01*
X743493Y-223266D01*
X745927Y-222049D01*
X747124Y-218456D01*
X745581Y-215371D01*
X746760Y-214192D01*
X746760Y-205348D01*
X744325Y-201130D01*
X744325Y-201130D01*
X744325Y-201130D01*
X740107Y-198695D01*
X735237Y-198695D01*
X733487Y-199706D01*
X731737Y-198695D01*
X727351Y-198695D01*
X723553Y-200888D01*
X723553Y-200888D01*
X721360Y-204687D01*
X721360Y-214192D01*
X723822Y-216654D01*
X723795Y-216670D01*
X723795Y-216670D01*
X723795Y-216670D01*
X721360Y-220887D01*
X721360Y-229732D01*
X724038Y-232410D01*
X736857Y-232410D01*
X744082Y-232410D01*
X456068Y-80010D02*
X453390Y-77332D01*
X456068Y-80010D02*
X459856Y-80010D01*
X462534Y-77332D01*
X462534Y-76743D01*
X463751Y-79177D01*
X467344Y-80374D01*
X470429Y-78831D01*
X471608Y-80010D01*
X484427Y-80010D01*
X487105Y-77332D01*
X487105Y-73544D01*
X484427Y-70866D01*
X482589Y-70866D01*
X482589Y-59435D01*
X482770Y-57805D01*
X482589Y-57578D01*
X482589Y-57288D01*
X481429Y-56128D01*
X480404Y-54847D01*
X480116Y-54815D01*
X479911Y-54610D01*
X478270Y-54610D01*
X476640Y-54429D01*
X476413Y-54610D01*
X476123Y-54610D01*
X474963Y-55770D01*
X470470Y-59365D01*
X469130Y-57045D01*
X469130Y-57045D01*
X469130Y-57045D01*
X464913Y-54610D01*
X456068Y-54610D01*
X453390Y-57288D01*
X453390Y-70107D01*
X453390Y-77332D01*
X441960Y27881D02*
X441960Y35281D01*
X440933Y36307D01*
X441960Y37334D01*
X441960Y50152D01*
X439282Y52831D01*
X435494Y52831D01*
X432816Y50152D01*
X432816Y48315D01*
X421385Y48315D01*
X419755Y48496D01*
X419528Y48315D01*
X419238Y48315D01*
X418078Y47155D01*
X416797Y46130D01*
X416765Y45842D01*
X416560Y45637D01*
X416560Y43996D01*
X416379Y42366D01*
X416560Y42139D01*
X416560Y41849D01*
X417720Y40689D01*
X419904Y37959D01*
X419238Y37959D01*
X416560Y35281D01*
X416560Y31668D01*
X416560Y31668D01*
X416560Y29774D01*
X416560Y27581D01*
X416560Y27581D01*
X418753Y23783D01*
X418753Y23783D01*
X418753Y23783D01*
X422551Y21590D01*
X435969Y21590D01*
X439767Y23783D01*
X439767Y23783D01*
X439767Y23783D01*
X441960Y27581D01*
X441960Y27881D01*
X181184Y8890D02*
X178506Y11568D01*
X181184Y8890D02*
X184971Y8890D01*
X187650Y11568D01*
X187650Y25146D01*
X189311Y25146D01*
X189311Y11568D01*
X191989Y8890D01*
X195777Y8890D01*
X198455Y11568D01*
X198455Y16115D01*
X200834Y16115D01*
X204210Y18064D01*
X204210Y17715D01*
X203866Y16510D01*
X204210Y15890D01*
X204210Y15181D01*
X205097Y14294D01*
X205705Y13199D01*
X206387Y13004D01*
X206889Y12502D01*
X208142Y12502D01*
X209347Y12158D01*
X209967Y12502D01*
X210532Y12502D01*
X210532Y11568D01*
X213210Y8890D01*
X216998Y8890D01*
X219676Y11568D01*
X219676Y12502D01*
X219707Y12502D01*
X222385Y15181D01*
X222385Y18968D01*
X219707Y21646D01*
X219676Y21646D01*
X219676Y22581D01*
X216998Y25259D01*
X215876Y25259D01*
X217311Y30283D01*
X215472Y33594D01*
X211830Y34634D01*
X208519Y32795D01*
X207191Y28148D01*
X205051Y31855D01*
X205051Y31855D01*
X205051Y31855D01*
X200834Y34290D01*
X191989Y34290D01*
X190738Y33039D01*
X189487Y34290D01*
X176668Y34290D01*
X173990Y31612D01*
X173990Y27824D01*
X176668Y25146D01*
X178506Y25146D01*
X178506Y11568D01*
X379868Y-60960D02*
X383656Y-60960D01*
X379868Y-60960D02*
X377190Y-63638D01*
X377190Y-79707D01*
X377190Y-79707D01*
X379625Y-83925D01*
X379625Y-83925D01*
X383843Y-86360D01*
X388713Y-86360D01*
X392930Y-83925D01*
X392930Y-83925D01*
X393342Y-83211D01*
X393342Y-83682D01*
X396020Y-86360D01*
X408839Y-86360D01*
X411517Y-83682D01*
X411517Y-79894D01*
X408839Y-77216D01*
X407002Y-77216D01*
X407002Y-65785D01*
X407183Y-64155D01*
X407002Y-63928D01*
X407002Y-63638D01*
X405842Y-62478D01*
X404817Y-61197D01*
X404529Y-61165D01*
X404324Y-60960D01*
X402683Y-60960D01*
X401052Y-60779D01*
X400826Y-60960D01*
X400536Y-60960D01*
X399376Y-62120D01*
X395365Y-65329D01*
X395365Y-63638D01*
X392687Y-60960D01*
X388899Y-60960D01*
X386278Y-63582D01*
X383656Y-60960D01*
X616656Y-115432D02*
X619334Y-118110D01*
X623121Y-118110D01*
X625800Y-115432D01*
X625800Y-101854D01*
X627461Y-101854D01*
X627461Y-115432D01*
X630139Y-118110D01*
X633927Y-118110D01*
X636605Y-115432D01*
X636605Y-110885D01*
X638984Y-110885D01*
X643201Y-108450D01*
X643201Y-108450D01*
X643201Y-108450D01*
X645030Y-105283D01*
X646876Y-105488D01*
X646876Y-108966D01*
X645039Y-108966D01*
X642360Y-111644D01*
X642360Y-115432D01*
X645039Y-118110D01*
X657857Y-118110D01*
X660535Y-115432D01*
X660535Y-111644D01*
X657857Y-108966D01*
X656020Y-108966D01*
X656020Y-97535D01*
X656201Y-95905D01*
X656020Y-95678D01*
X656020Y-95388D01*
X654860Y-94228D01*
X653835Y-92947D01*
X653547Y-92915D01*
X653342Y-92710D01*
X651701Y-92710D01*
X650071Y-92529D01*
X649844Y-92710D01*
X649554Y-92710D01*
X648394Y-93870D01*
X644338Y-97115D01*
X643201Y-95145D01*
X643201Y-95145D01*
X638984Y-92710D01*
X630139Y-92710D01*
X628888Y-93961D01*
X627637Y-92710D01*
X614818Y-92710D01*
X612140Y-95388D01*
X612140Y-99176D01*
X614818Y-101854D01*
X616656Y-101854D01*
X616656Y-115432D01*
X724038Y-305816D02*
X721360Y-308494D01*
X721360Y-312282D01*
X724038Y-314960D01*
X744082Y-314960D01*
X746760Y-312282D01*
X746760Y-301269D01*
X745493Y-300002D01*
X746760Y-298735D01*
X746760Y-287722D01*
X745508Y-286470D01*
X746760Y-285217D01*
X746760Y-278542D01*
X746760Y-276373D01*
X746760Y-276373D01*
X744325Y-272156D01*
X744325Y-272156D01*
X744325Y-272156D01*
X743611Y-271743D01*
X744082Y-271743D01*
X746760Y-269065D01*
X746760Y-256246D01*
X744082Y-253568D01*
X740294Y-253568D01*
X737616Y-256246D01*
X737616Y-258084D01*
X726185Y-258084D01*
X724555Y-257903D01*
X724328Y-258084D01*
X724038Y-258084D01*
X722878Y-259244D01*
X721597Y-260269D01*
X721565Y-260557D01*
X721360Y-260762D01*
X721360Y-262403D01*
X721179Y-264033D01*
X721360Y-264260D01*
X721360Y-264550D01*
X722520Y-265710D01*
X726450Y-270623D01*
X723795Y-272156D01*
X723795Y-272156D01*
X723795Y-272156D01*
X721360Y-276373D01*
X721360Y-285217D01*
X722612Y-286470D01*
X721360Y-287722D01*
X721360Y-298735D01*
X724038Y-301413D01*
X737616Y-301413D01*
X737616Y-305816D01*
X724038Y-305816D01*
X675640Y-308649D02*
X675640Y-298588D01*
X675640Y-308649D02*
X675555Y-308742D01*
X675640Y-310525D01*
X675640Y-318632D01*
X678318Y-321310D01*
X682106Y-321310D01*
X684784Y-318632D01*
X684784Y-318111D01*
X686136Y-320590D01*
X689770Y-321659D01*
X693095Y-319845D01*
X694164Y-316211D01*
X689273Y-307246D01*
X693900Y-302156D01*
X693720Y-298373D01*
X690917Y-295825D01*
X687134Y-296005D01*
X684784Y-298590D01*
X684784Y-298588D01*
X682106Y-295910D01*
X678318Y-295910D01*
X675640Y-298588D01*
X530860Y-282366D02*
X528182Y-285044D01*
X530860Y-282366D02*
X530860Y-278579D01*
X528182Y-275900D01*
X514604Y-275900D01*
X514604Y-275106D01*
X515022Y-275152D01*
X517979Y-272786D01*
X518238Y-270455D01*
X521716Y-270455D01*
X521716Y-272293D01*
X524394Y-274971D01*
X528182Y-274971D01*
X530860Y-272293D01*
X530860Y-259474D01*
X528182Y-256796D01*
X524394Y-256796D01*
X521716Y-259474D01*
X521716Y-261311D01*
X510285Y-261311D01*
X508655Y-261130D01*
X508428Y-261311D01*
X508138Y-261311D01*
X506978Y-262471D01*
X505697Y-263496D01*
X505665Y-263784D01*
X505460Y-263990D01*
X505460Y-265630D01*
X505279Y-267261D01*
X505460Y-267487D01*
X505460Y-267777D01*
X506620Y-268937D01*
X508578Y-271385D01*
X508138Y-271385D01*
X505460Y-274063D01*
X505460Y-286882D01*
X508138Y-289560D01*
X511926Y-289560D01*
X514604Y-286882D01*
X514604Y-285044D01*
X528182Y-285044D01*
X509640Y-147895D02*
X505432Y-147895D01*
X501424Y-150209D01*
X501424Y-150209D01*
X501424Y-150209D01*
X499110Y-154217D01*
X499110Y-158614D01*
X500806Y-162420D01*
X500806Y-162420D01*
X503431Y-164781D01*
X501545Y-165870D01*
X501545Y-165870D01*
X501545Y-165870D01*
X499110Y-170087D01*
X499110Y-178932D01*
X501788Y-181610D01*
X521832Y-181610D01*
X524510Y-178932D01*
X524510Y-175144D01*
X521832Y-172466D01*
X521243Y-172466D01*
X523677Y-171249D01*
X524874Y-167656D01*
X523331Y-164571D01*
X524510Y-163392D01*
X524510Y-163179D01*
X524648Y-163016D01*
X524510Y-161313D01*
X524510Y-150573D01*
X521832Y-147895D01*
X518044Y-147895D01*
X515366Y-150573D01*
X515366Y-151612D01*
X514051Y-150494D01*
X512953Y-149340D01*
X512953Y-149340D01*
X512431Y-149117D01*
X512425Y-149112D01*
X512420Y-149112D01*
X509684Y-147940D01*
X509640Y-147895D01*
X136010Y-88975D02*
X136010Y-85645D01*
X133655Y-83290D01*
X130325Y-83290D01*
X127970Y-85645D01*
X127970Y-88975D01*
X130325Y-91330D01*
X133655Y-91330D01*
X136010Y-88975D01*
X641980Y-218007D02*
X641980Y-239193D01*
X641980Y-218007D02*
X639748Y-215775D01*
X620592Y-215775D01*
X618360Y-218007D01*
X618360Y-223520D01*
X613540Y-223520D01*
X613540Y-218007D01*
X611308Y-215775D01*
X592152Y-215775D01*
X589920Y-218007D01*
X589920Y-223520D01*
X581230Y-223520D01*
X581230Y-183260D01*
X588728Y-183260D01*
X590960Y-181028D01*
X590960Y-161872D01*
X588728Y-159640D01*
X570572Y-159640D01*
X568340Y-161872D01*
X568340Y-181028D01*
X570572Y-183260D01*
X571070Y-183260D01*
X571070Y-254740D01*
X567572Y-254740D01*
X565340Y-256972D01*
X565340Y-267970D01*
X564960Y-267970D01*
X564960Y-266472D01*
X562728Y-264240D01*
X545572Y-264240D01*
X543340Y-266472D01*
X543340Y-279628D01*
X545572Y-281860D01*
X562728Y-281860D01*
X564960Y-279628D01*
X564960Y-278130D01*
X598170Y-278130D01*
X598170Y-287854D01*
X601146Y-290830D01*
X687904Y-290830D01*
X690880Y-287854D01*
X690880Y-287010D01*
X693378Y-287010D01*
X695610Y-284778D01*
X695610Y-269622D01*
X693378Y-267390D01*
X678222Y-267390D01*
X675990Y-269622D01*
X675990Y-280670D01*
X608330Y-280670D01*
X608330Y-271071D01*
X605354Y-268095D01*
X604849Y-268095D01*
X604724Y-267970D01*
X586960Y-267970D01*
X586960Y-256972D01*
X584728Y-254740D01*
X581230Y-254740D01*
X581230Y-233680D01*
X589920Y-233680D01*
X589920Y-239193D01*
X592152Y-241425D01*
X611308Y-241425D01*
X613540Y-239193D01*
X613540Y-233680D01*
X618360Y-233680D01*
X618360Y-239193D01*
X620592Y-241425D01*
X639748Y-241425D01*
X641980Y-239193D01*
X768350Y-330200D02*
X95250Y-330200D01*
X95250Y-317500D02*
X675640Y-317500D01*
X693785Y-317500D02*
X768350Y-317500D01*
X675640Y-304800D02*
X95250Y-304800D01*
X691496Y-304800D02*
X737616Y-304800D01*
X746760Y-304800D02*
X768350Y-304800D01*
X721360Y-292100D02*
X95250Y-292100D01*
X746760Y-292100D02*
X768350Y-292100D01*
X505460Y-279400D02*
X95250Y-279400D01*
X530860Y-279400D02*
X543340Y-279400D01*
X564960Y-279400D02*
X598170Y-279400D01*
X608330Y-279400D02*
X675990Y-279400D01*
X695610Y-279400D02*
X721360Y-279400D01*
X746760Y-279400D02*
X768350Y-279400D01*
X505341Y-266700D02*
X95250Y-266700D01*
X530860Y-266700D02*
X543340Y-266700D01*
X564960Y-266700D02*
X565340Y-266700D01*
X586960Y-266700D02*
X723312Y-266700D01*
X746760Y-266700D02*
X768350Y-266700D01*
X571070Y-254000D02*
X95250Y-254000D01*
X581230Y-254000D02*
X675990Y-254000D01*
X695610Y-254000D02*
X739862Y-254000D01*
X744514Y-254000D02*
X768350Y-254000D01*
X571070Y-241300D02*
X95250Y-241300D01*
X581230Y-241300D02*
X592027Y-241300D01*
X611433Y-241300D02*
X620467Y-241300D01*
X639873Y-241300D02*
X680720Y-241300D01*
X690880Y-241300D02*
X768350Y-241300D01*
X571070Y-228600D02*
X95250Y-228600D01*
X641980Y-228600D02*
X674490Y-228600D01*
X697110Y-228600D02*
X721360Y-228600D01*
X746760Y-228600D02*
X768350Y-228600D01*
X571070Y-215900D02*
X95250Y-215900D01*
X581230Y-215900D02*
X592027Y-215900D01*
X611433Y-215900D02*
X620467Y-215900D01*
X639873Y-215900D02*
X675912Y-215900D01*
X695688Y-215900D02*
X723068Y-215900D01*
X745846Y-215900D02*
X768350Y-215900D01*
X571070Y-203200D02*
X95250Y-203200D01*
X581230Y-203200D02*
X674490Y-203200D01*
X697110Y-203200D02*
X722218Y-203200D01*
X745520Y-203200D02*
X768350Y-203200D01*
X571070Y-190500D02*
X95250Y-190500D01*
X581230Y-190500D02*
X616656Y-190500D01*
X625800Y-190500D02*
X627461Y-190500D01*
X643490Y-190500D02*
X645682Y-190500D01*
X657683Y-190500D02*
X680720Y-190500D01*
X690880Y-190500D02*
X768350Y-190500D01*
X499110Y-177800D02*
X95250Y-177800D01*
X524510Y-177800D02*
X568340Y-177800D01*
X590960Y-177800D02*
X612278Y-177800D01*
X643262Y-177800D02*
X645252Y-177800D01*
X658352Y-177800D02*
X680720Y-177800D01*
X690880Y-177800D02*
X768350Y-177800D01*
X502879Y-165100D02*
X95250Y-165100D01*
X523596Y-165100D02*
X537340Y-165100D01*
X556960Y-165100D02*
X568340Y-165100D01*
X590960Y-165100D02*
X680720Y-165100D01*
X690880Y-165100D02*
X768350Y-165100D01*
X500159Y-152400D02*
X95250Y-152400D01*
X524510Y-152400D02*
X538812Y-152400D01*
X555488Y-152400D02*
X680720Y-152400D01*
X690880Y-152400D02*
X768350Y-152400D01*
X542070Y-139700D02*
X95250Y-139700D01*
X552230Y-139700D02*
X680720Y-139700D01*
X690880Y-139700D02*
X768350Y-139700D01*
X542070Y-127000D02*
X95250Y-127000D01*
X552230Y-127000D02*
X680720Y-127000D01*
X690880Y-127000D02*
X768350Y-127000D01*
X542070Y-114300D02*
X95250Y-114300D01*
X575440Y-114300D02*
X580260Y-114300D01*
X603880Y-114300D02*
X616656Y-114300D01*
X625800Y-114300D02*
X627461Y-114300D01*
X636605Y-114300D02*
X642360Y-114300D01*
X660535Y-114300D02*
X680720Y-114300D01*
X690880Y-114300D02*
X768350Y-114300D01*
X551820Y-101600D02*
X95250Y-101600D01*
X575440Y-101600D02*
X580260Y-101600D01*
X603880Y-101600D02*
X614564Y-101600D01*
X656020Y-101600D02*
X680720Y-101600D01*
X690880Y-101600D02*
X768350Y-101600D01*
X127970Y-88900D02*
X95250Y-88900D01*
X136010Y-88900D02*
X558550Y-88900D01*
X568710Y-88900D02*
X680720Y-88900D01*
X690880Y-88900D02*
X768350Y-88900D01*
X126699Y-76200D02*
X95250Y-76200D01*
X147781Y-76200D02*
X377190Y-76200D01*
X407002Y-76200D02*
X453390Y-76200D01*
X487105Y-76200D02*
X558550Y-76200D01*
X568710Y-76200D02*
X680720Y-76200D01*
X690880Y-76200D02*
X768350Y-76200D01*
X126699Y-63500D02*
X95250Y-63500D01*
X147781Y-63500D02*
X377328Y-63500D01*
X386196Y-63500D02*
X386359Y-63500D01*
X395227Y-63500D02*
X397651Y-63500D01*
X406864Y-63500D02*
X453390Y-63500D01*
X482589Y-63500D02*
X558550Y-63500D01*
X568710Y-63500D02*
X680720Y-63500D01*
X690880Y-63500D02*
X768350Y-63500D01*
X126726Y-50800D02*
X95250Y-50800D01*
X341630Y-50800D02*
X399312Y-50800D01*
X415288Y-50800D02*
X425325Y-50800D01*
X450975Y-50800D02*
X558550Y-50800D01*
X568710Y-50800D02*
X680720Y-50800D01*
X690880Y-50800D02*
X768350Y-50800D01*
X331470Y-38100D02*
X95250Y-38100D01*
X341630Y-38100D02*
X384240Y-38100D01*
X450975Y-38100D02*
X558550Y-38100D01*
X568710Y-38100D02*
X680720Y-38100D01*
X690880Y-38100D02*
X768350Y-38100D01*
X331470Y-25400D02*
X95250Y-25400D01*
X341630Y-25400D02*
X384812Y-25400D01*
X450975Y-25400D02*
X680720Y-25400D01*
X690880Y-25400D02*
X768350Y-25400D01*
X325327Y-12700D02*
X95250Y-12700D01*
X347773Y-12700D02*
X382712Y-12700D01*
X688154Y-12700D02*
X768350Y-12700D01*
X323725Y0D02*
X95250Y0D01*
X427804Y0D02*
X768350Y0D01*
X178506Y12700D02*
X95250Y12700D01*
X187650Y12700D02*
X189311Y12700D01*
X198455Y12700D02*
X206691Y12700D01*
X219905Y12700D02*
X331470Y12700D01*
X341630Y12700D02*
X768350Y12700D01*
X176414Y25400D02*
X95250Y25400D01*
X215916Y25400D02*
X323725Y25400D01*
X349375Y25400D02*
X417819Y25400D01*
X440701Y25400D02*
X768350Y25400D01*
X325327Y38100D02*
X95250Y38100D01*
X347773Y38100D02*
X419791Y38100D01*
X441960Y38100D02*
X768350Y38100D01*
X433464Y50800D02*
X95250Y50800D01*
X441312Y50800D02*
X768350Y50800D01*
X768350Y63500D02*
X95250Y63500D01*
X101600Y69850D02*
X101600Y-330200D01*
X114300Y-330200D02*
X114300Y69850D01*
X127000Y-77594D02*
X127000Y-330200D01*
X127000Y-50526D02*
X127000Y69850D01*
X139700Y-79525D02*
X139700Y-330200D01*
X139700Y-48595D02*
X139700Y69850D01*
X152400Y-59390D02*
X152400Y-330200D01*
X152400Y-49230D02*
X152400Y69850D01*
X165100Y-59390D02*
X165100Y-330200D01*
X165100Y-49230D02*
X165100Y69850D01*
X177800Y-59390D02*
X177800Y-330200D01*
X177800Y-49230D02*
X177800Y25146D01*
X177800Y34290D02*
X177800Y69850D01*
X190500Y-59390D02*
X190500Y-330200D01*
X190500Y-49230D02*
X190500Y10379D01*
X190500Y33277D02*
X190500Y69850D01*
X203200Y-59390D02*
X203200Y-330200D01*
X203200Y-49230D02*
X203200Y17481D01*
X203200Y32924D02*
X203200Y69850D01*
X215900Y-59390D02*
X215900Y-330200D01*
X215900Y-49230D02*
X215900Y8890D01*
X215900Y25259D02*
X215900Y25344D01*
X215900Y32823D02*
X215900Y69850D01*
X228600Y-59390D02*
X228600Y-330200D01*
X228600Y-49230D02*
X228600Y69850D01*
X241300Y-59390D02*
X241300Y-330200D01*
X241300Y-49230D02*
X241300Y69850D01*
X254000Y-59390D02*
X254000Y-330200D01*
X254000Y-49230D02*
X254000Y69850D01*
X266700Y-59390D02*
X266700Y-330200D01*
X266700Y-49230D02*
X266700Y69850D01*
X279400Y-59390D02*
X279400Y-330200D01*
X279400Y-49230D02*
X279400Y69850D01*
X292100Y-59390D02*
X292100Y-330200D01*
X292100Y-49230D02*
X292100Y69850D01*
X304800Y-59390D02*
X304800Y-330200D01*
X304800Y-49230D02*
X304800Y69850D01*
X317500Y-59390D02*
X317500Y-330200D01*
X317500Y-49230D02*
X317500Y69850D01*
X330200Y-59390D02*
X330200Y-330200D01*
X330200Y-49230D02*
X330200Y-13330D01*
X330200Y10290D02*
X330200Y15110D01*
X330200Y38730D02*
X330200Y69850D01*
X342900Y-13330D02*
X342900Y-330200D01*
X342900Y10290D02*
X342900Y15110D01*
X342900Y38730D02*
X342900Y69850D01*
X355600Y-6600D02*
X355600Y-330200D01*
X355600Y3560D02*
X355600Y69850D01*
X368300Y-6600D02*
X368300Y-330200D01*
X368300Y3560D02*
X368300Y69850D01*
X381000Y-84719D02*
X381000Y-330200D01*
X381000Y-60960D02*
X381000Y-10988D01*
X381000Y8388D02*
X381000Y69850D01*
X393700Y-84040D02*
X393700Y-330200D01*
X393700Y-61973D02*
X393700Y-41060D01*
X393700Y10510D02*
X393700Y69850D01*
X406400Y-86360D02*
X406400Y-330200D01*
X406400Y-63036D02*
X406400Y-52460D01*
X406400Y8388D02*
X406400Y69850D01*
X419100Y-49480D02*
X419100Y-330200D01*
X419100Y3780D02*
X419100Y23583D01*
X419100Y37821D02*
X419100Y38964D01*
X419100Y48177D02*
X419100Y69850D01*
X431800Y-57780D02*
X431800Y-330200D01*
X431800Y-3996D02*
X431800Y21590D01*
X431800Y48315D02*
X431800Y69850D01*
X444500Y-57780D02*
X444500Y-330200D01*
X444500Y-5720D02*
X444500Y69850D01*
X457200Y-80010D02*
X457200Y-330200D01*
X457200Y-54610D02*
X457200Y-37480D01*
X457200Y-27320D02*
X457200Y-22610D01*
X457200Y-12450D02*
X457200Y69850D01*
X469900Y-79096D02*
X469900Y-330200D01*
X469900Y-58379D02*
X469900Y-37480D01*
X469900Y-27320D02*
X469900Y-22610D01*
X469900Y-12450D02*
X469900Y69850D01*
X482600Y-80010D02*
X482600Y-330200D01*
X482600Y-70866D02*
X482600Y-59338D01*
X482600Y-57592D02*
X482600Y-37480D01*
X482600Y-27320D02*
X482600Y-22610D01*
X482600Y-12450D02*
X482600Y69850D01*
X495300Y-37480D02*
X495300Y-330200D01*
X495300Y-27320D02*
X495300Y-22610D01*
X495300Y-12450D02*
X495300Y69850D01*
X508000Y-289422D02*
X508000Y-330200D01*
X508000Y-271523D02*
X508000Y-270662D01*
X508000Y-261450D02*
X508000Y-181610D01*
X508000Y-147895D02*
X508000Y-37480D01*
X508000Y-27320D02*
X508000Y-22610D01*
X508000Y-12450D02*
X508000Y69850D01*
X520700Y-285044D02*
X520700Y-330200D01*
X520700Y-275900D02*
X520700Y-270455D01*
X520700Y-261311D02*
X520700Y-181610D01*
X520700Y-147895D02*
X520700Y-37480D01*
X520700Y-27320D02*
X520700Y-22610D01*
X520700Y-12450D02*
X520700Y69850D01*
X533400Y-37480D02*
X533400Y-330200D01*
X533400Y-27320D02*
X533400Y-22610D01*
X533400Y-12450D02*
X533400Y69850D01*
X546100Y-281860D02*
X546100Y-330200D01*
X546100Y-264240D02*
X546100Y-171260D01*
X546100Y-102870D02*
X546100Y-37480D01*
X546100Y-27320D02*
X546100Y-22610D01*
X546100Y-12450D02*
X546100Y69850D01*
X558800Y-281860D02*
X558800Y-330200D01*
X558800Y-264240D02*
X558800Y-120775D01*
X558800Y-27320D02*
X558800Y-22610D01*
X558800Y-12450D02*
X558800Y69850D01*
X571500Y-278130D02*
X571500Y-330200D01*
X571500Y-159640D02*
X571500Y-120775D01*
X571500Y-95125D02*
X571500Y-22610D01*
X571500Y-12450D02*
X571500Y69850D01*
X584200Y-278130D02*
X584200Y-330200D01*
X584200Y-254740D02*
X584200Y-233680D01*
X584200Y-223520D02*
X584200Y-183260D01*
X584200Y-159640D02*
X584200Y-120775D01*
X584200Y-95125D02*
X584200Y-22610D01*
X584200Y-12450D02*
X584200Y69850D01*
X596900Y-278130D02*
X596900Y-330200D01*
X596900Y-267970D02*
X596900Y-241425D01*
X596900Y-215775D02*
X596900Y-120775D01*
X596900Y-95125D02*
X596900Y-22610D01*
X596900Y-12450D02*
X596900Y69850D01*
X609600Y-290830D02*
X609600Y-330200D01*
X609600Y-280670D02*
X609600Y-241425D01*
X609600Y-215775D02*
X609600Y-22610D01*
X609600Y-12450D02*
X609600Y69850D01*
X622300Y-290830D02*
X622300Y-330200D01*
X622300Y-280670D02*
X622300Y-241425D01*
X622300Y-215775D02*
X622300Y-200660D01*
X622300Y-175260D02*
X622300Y-118110D01*
X622300Y-92710D02*
X622300Y-22610D01*
X622300Y-12450D02*
X622300Y69850D01*
X635000Y-290830D02*
X635000Y-330200D01*
X635000Y-280670D02*
X635000Y-241425D01*
X635000Y-215775D02*
X635000Y-199587D01*
X635000Y-175260D02*
X635000Y-117037D01*
X635000Y-92710D02*
X635000Y-22610D01*
X635000Y-12450D02*
X635000Y69850D01*
X647700Y-290830D02*
X647700Y-330200D01*
X647700Y-280670D02*
X647700Y-200660D01*
X647700Y-176203D02*
X647700Y-118110D01*
X647700Y-94425D02*
X647700Y-22610D01*
X647700Y-12450D02*
X647700Y69850D01*
X660400Y-290830D02*
X660400Y-330200D01*
X660400Y-280670D02*
X660400Y-198117D01*
X660400Y-194059D02*
X660400Y-186046D01*
X660400Y-181347D02*
X660400Y-115567D01*
X660400Y-111509D02*
X660400Y-22610D01*
X660400Y-12450D02*
X660400Y69850D01*
X673100Y-290830D02*
X673100Y-330200D01*
X673100Y-280670D02*
X673100Y-22610D01*
X673100Y-12450D02*
X673100Y69850D01*
X685800Y-319973D02*
X685800Y-330200D01*
X685800Y-297473D02*
X685800Y-290830D01*
X685800Y-267390D02*
X685800Y-266010D01*
X685800Y-12450D02*
X685800Y69850D01*
X698500Y69850D02*
X698500Y-330200D01*
X711200Y-330200D02*
X711200Y69850D01*
X723900Y-314822D02*
X723900Y-330200D01*
X723900Y-305954D02*
X723900Y-301275D01*
X723900Y-272095D02*
X723900Y-267435D01*
X723900Y-258222D02*
X723900Y-232272D01*
X723900Y-200688D02*
X723900Y69850D01*
X736600Y-314960D02*
X736600Y-330200D01*
X736600Y-305816D02*
X736600Y-301413D01*
X736600Y-258084D02*
X736600Y-232410D01*
X736600Y-198695D02*
X736600Y69850D01*
X749300Y69850D02*
X749300Y-330200D01*
X762000Y-330200D02*
X762000Y69850D01*
X563630Y-32400D02*
X407300Y-32400D01*
X563630Y-32400D02*
X563630Y-107950D01*
X547150Y-107950D01*
X547150Y-161450D01*
X563630Y-107950D02*
X592070Y-107950D01*
X579650Y-171450D02*
X576150Y-171450D01*
X576150Y-228600D01*
X576150Y-263550D01*
X576150Y-228600D02*
X601730Y-228600D01*
X630170Y-228600D01*
X685800Y-225400D02*
X685800Y-256200D01*
X602620Y-273050D02*
X554150Y-273050D01*
X602620Y-273050D02*
X602620Y-273175D01*
X603250Y-273175D01*
X603250Y-285750D01*
X685800Y-285750D01*
X685800Y-277200D01*
M02*
