G04 EAGLE Gerber RS-274X export*
G75*
%MOMM*%
%FSLAX34Y34*%
%LPD*%
%INSilkscreen Bottom*%
%IPPOS*%
%AMOC8*
5,1,8,0,0,1.08239X$1,22.5*%
G01*
%ADD10C,0.076200*%

G36*
X143771Y127775D02*
X143771Y127775D01*
X143800Y127773D01*
X144457Y127860D01*
X144493Y127873D01*
X144553Y127885D01*
X145166Y128139D01*
X145196Y128161D01*
X145251Y128189D01*
X145778Y128592D01*
X145802Y128622D01*
X145848Y128662D01*
X146251Y129189D01*
X146267Y129223D01*
X146301Y129275D01*
X146555Y129887D01*
X146561Y129925D01*
X146579Y129977D01*
X146579Y129979D01*
X146580Y129983D01*
X146667Y130640D01*
X146665Y130662D01*
X146670Y130690D01*
X146670Y138310D01*
X146665Y138331D01*
X146667Y138360D01*
X146580Y139017D01*
X146567Y139053D01*
X146555Y139113D01*
X146301Y139726D01*
X146279Y139756D01*
X146251Y139811D01*
X145848Y140338D01*
X145818Y140362D01*
X145778Y140408D01*
X145251Y140811D01*
X145217Y140827D01*
X145166Y140861D01*
X144553Y141115D01*
X144516Y141121D01*
X144457Y141140D01*
X143800Y141227D01*
X143778Y141225D01*
X143750Y141230D01*
X138689Y141230D01*
X137506Y141347D01*
X136386Y141686D01*
X135354Y142238D01*
X134450Y142980D01*
X133708Y143884D01*
X133156Y144916D01*
X132817Y146036D01*
X132700Y147219D01*
X132700Y152280D01*
X132695Y152301D01*
X132697Y152330D01*
X132610Y152987D01*
X132597Y153023D01*
X132585Y153083D01*
X132331Y153696D01*
X132309Y153726D01*
X132281Y153781D01*
X131878Y154308D01*
X131848Y154332D01*
X131808Y154378D01*
X131281Y154781D01*
X131247Y154797D01*
X131196Y154831D01*
X130583Y155085D01*
X130546Y155091D01*
X130487Y155110D01*
X129830Y155197D01*
X129808Y155195D01*
X129780Y155200D01*
X122160Y155200D01*
X122139Y155195D01*
X122110Y155197D01*
X121453Y155110D01*
X121417Y155097D01*
X121357Y155085D01*
X120745Y154831D01*
X120714Y154809D01*
X120659Y154781D01*
X120132Y154378D01*
X120108Y154348D01*
X120062Y154308D01*
X119659Y153781D01*
X119643Y153747D01*
X119609Y153696D01*
X119355Y153083D01*
X119349Y153046D01*
X119330Y152987D01*
X119243Y152330D01*
X119245Y152308D01*
X119240Y152280D01*
X119240Y144660D01*
X119245Y144639D01*
X119243Y144610D01*
X119330Y143953D01*
X119343Y143917D01*
X119355Y143857D01*
X119609Y143245D01*
X119631Y143214D01*
X119659Y143159D01*
X120062Y142632D01*
X120092Y142608D01*
X120132Y142562D01*
X120659Y142159D01*
X120693Y142143D01*
X120745Y142109D01*
X121357Y141855D01*
X121395Y141849D01*
X121453Y141830D01*
X122110Y141743D01*
X122132Y141745D01*
X122160Y141740D01*
X127221Y141740D01*
X128404Y141623D01*
X129524Y141284D01*
X130556Y140732D01*
X131460Y139990D01*
X132202Y139086D01*
X132754Y138054D01*
X133093Y136934D01*
X133210Y135751D01*
X133210Y130690D01*
X133215Y130669D01*
X133213Y130640D01*
X133300Y129983D01*
X133307Y129963D01*
X133307Y129951D01*
X133315Y129936D01*
X133325Y129887D01*
X133579Y129275D01*
X133601Y129244D01*
X133629Y129189D01*
X134032Y128662D01*
X134037Y128659D01*
X134037Y128658D01*
X134044Y128653D01*
X134062Y128638D01*
X134102Y128592D01*
X134629Y128189D01*
X134663Y128173D01*
X134715Y128139D01*
X135327Y127885D01*
X135365Y127879D01*
X135423Y127860D01*
X136080Y127773D01*
X136102Y127775D01*
X136130Y127770D01*
X143750Y127770D01*
X143771Y127775D01*
G37*
G36*
X115831Y127775D02*
X115831Y127775D01*
X115860Y127773D01*
X116517Y127860D01*
X116553Y127873D01*
X116613Y127885D01*
X117226Y128139D01*
X117256Y128161D01*
X117311Y128189D01*
X117838Y128592D01*
X117862Y128622D01*
X117908Y128662D01*
X118311Y129189D01*
X118327Y129223D01*
X118361Y129275D01*
X118615Y129887D01*
X118621Y129925D01*
X118639Y129978D01*
X118639Y129979D01*
X118640Y129983D01*
X118727Y130640D01*
X118725Y130662D01*
X118730Y130690D01*
X118730Y138310D01*
X118725Y138331D01*
X118727Y138360D01*
X118640Y139017D01*
X118627Y139053D01*
X118615Y139113D01*
X118361Y139726D01*
X118339Y139756D01*
X118311Y139811D01*
X117908Y140338D01*
X117878Y140362D01*
X117838Y140408D01*
X117311Y140811D01*
X117277Y140827D01*
X117226Y140861D01*
X116613Y141115D01*
X116576Y141121D01*
X116517Y141140D01*
X115860Y141227D01*
X115838Y141225D01*
X115810Y141230D01*
X108190Y141230D01*
X108169Y141225D01*
X108140Y141227D01*
X107483Y141140D01*
X107447Y141127D01*
X107387Y141115D01*
X106775Y140861D01*
X106744Y140839D01*
X106689Y140811D01*
X106162Y140408D01*
X106138Y140378D01*
X106092Y140338D01*
X105689Y139811D01*
X105673Y139777D01*
X105639Y139726D01*
X105385Y139113D01*
X105379Y139076D01*
X105360Y139017D01*
X105273Y138360D01*
X105275Y138338D01*
X105270Y138310D01*
X105270Y130690D01*
X105275Y130669D01*
X105273Y130640D01*
X105360Y129983D01*
X105367Y129963D01*
X105367Y129951D01*
X105375Y129936D01*
X105385Y129887D01*
X105639Y129275D01*
X105661Y129244D01*
X105689Y129189D01*
X106092Y128662D01*
X106097Y128659D01*
X106097Y128658D01*
X106104Y128653D01*
X106122Y128638D01*
X106162Y128592D01*
X106689Y128189D01*
X106723Y128173D01*
X106775Y128139D01*
X107387Y127885D01*
X107425Y127879D01*
X107483Y127860D01*
X108140Y127773D01*
X108162Y127775D01*
X108190Y127770D01*
X115810Y127770D01*
X115831Y127775D01*
G37*
D10*
X893678Y-390083D02*
X893678Y-395417D01*
X896049Y-395417D01*
X896049Y-393046D02*
X893678Y-393046D01*
X898465Y-395417D02*
X898465Y-390083D01*
X898465Y-395417D02*
X899946Y-395417D01*
X900022Y-395415D01*
X900098Y-395409D01*
X900174Y-395399D01*
X900249Y-395386D01*
X900323Y-395368D01*
X900397Y-395347D01*
X900469Y-395322D01*
X900539Y-395293D01*
X900609Y-395261D01*
X900676Y-395225D01*
X900741Y-395185D01*
X900805Y-395143D01*
X900866Y-395097D01*
X900924Y-395048D01*
X900980Y-394996D01*
X901034Y-394942D01*
X901084Y-394884D01*
X901131Y-394825D01*
X901176Y-394762D01*
X901217Y-394698D01*
X901254Y-394632D01*
X901288Y-394563D01*
X901319Y-394493D01*
X901346Y-394422D01*
X901369Y-394349D01*
X901388Y-394275D01*
X901404Y-394201D01*
X901416Y-394125D01*
X901424Y-394049D01*
X901428Y-393973D01*
X901428Y-393897D01*
X901424Y-393821D01*
X901416Y-393745D01*
X901404Y-393669D01*
X901388Y-393595D01*
X901369Y-393521D01*
X901346Y-393448D01*
X901319Y-393377D01*
X901288Y-393307D01*
X901254Y-393238D01*
X901217Y-393172D01*
X901176Y-393108D01*
X901131Y-393045D01*
X901084Y-392986D01*
X901034Y-392928D01*
X900980Y-392874D01*
X900924Y-392822D01*
X900866Y-392773D01*
X900805Y-392727D01*
X900741Y-392685D01*
X900676Y-392645D01*
X900609Y-392609D01*
X900539Y-392577D01*
X900469Y-392548D01*
X900397Y-392523D01*
X900323Y-392502D01*
X900249Y-392484D01*
X900174Y-392471D01*
X900098Y-392461D01*
X900022Y-392455D01*
X899946Y-392453D01*
X899946Y-392454D02*
X898465Y-392454D01*
X900243Y-392454D02*
X901428Y-390083D01*
X903906Y-391268D02*
X905091Y-395417D01*
X903906Y-391268D02*
X906869Y-391268D01*
X905980Y-390083D02*
X905980Y-392454D01*
M02*
